<svg width="526" height="236" viewBox="0 0 526 236" fill="none" xmlns="http://www.w3.org/2000/svg">
<g clip-path="url(#clip0_239_146)" filter="url(#filter0_d_239_146)">
<path d="M172.891 64.0141C178.041 59.5849 192.822 59.6532 199.543 59.9732C202.588 60.1169 205.885 60.6783 208.967 60.8501C210.296 60.9549 211.055 61.0101 212.364 61.2885C212.659 62.9062 212.592 62.682 214.123 63.5259C225.158 64.1086 236.174 65.0207 247.155 66.2578C253.173 66.9227 261.996 67.4393 267.353 69.9208C272.149 72.1442 278.299 81.0807 281.756 85.212C285.4 89.5661 289.196 94.3944 292.542 98.9229C295.977 98.9727 299.396 98.6947 301.322 102.022C301.447 104.791 301.856 106.529 300.285 108.835C304.73 114.199 309.798 119.608 311.599 126.481C311.86 127.481 312.03 128.571 312.312 129.534L313.388 133.232C316.325 138.999 316.07 144.68 314.099 150.801C313.83 151.654 313.517 152.491 313.165 153.311C310.835 158.642 309.103 159.753 303.409 160.273C301.932 164.218 300.829 166.49 297.292 168.963C303.753 169.188 310.208 169.55 316.654 170.049C319.856 170.271 324.475 170.738 327.573 170.638C323.37 172.122 312.31 172.156 307.637 172.583C291.372 174.067 274.976 173.592 258.625 173.765C221.902 174.188 185.177 174.111 148.455 173.533C129.719 173.266 110.847 173.064 92.15 171.71C89.0382 171.485 83.9765 171.587 81.1329 171.049C81.7308 170.618 98.6303 169.708 101.036 169.59C97.4609 166.777 96.0134 163.873 95.2215 159.415C87.9078 158.397 79.7382 158.064 72.3391 157.516C69.0716 157.273 63.6073 157.248 60.652 156.819L60.7386 156.635C63.0974 156.193 65.7991 156.449 68.1603 156.094C75.3453 155.013 83.1664 154.923 90.2942 153.84C90.9122 153.883 90.7608 153.859 91.3963 153.707C90.7087 153.313 90.0141 153.275 89.2235 153.15C85.5465 152.582 81.8451 152.209 78.1298 152.031C75.5833 151.912 72.8245 151.995 70.3276 151.595C69.822 151.515 69.336 151.033 68.9617 150.68C67.1794 148.763 67.999 145.667 68.5397 143.421C70.2755 142.023 92.1525 141.816 95.7496 141.729C93.5554 146.142 93.3117 147.611 92.9481 152.456C94.9584 146.43 96.4486 141.454 102.28 138.264C103.214 137.884 103.784 137.715 104.76 137.451C106.115 137.276 107.378 137.277 108.737 137.043C115.466 136.526 118.467 141.001 121.852 145.806C121.189 144.07 120.107 142.217 119.209 140.567C122.82 140.137 130.089 140.084 134.026 139.957C142.914 139.673 152.393 139.037 161.228 139.004C161.121 138.139 161.119 137.185 161.095 136.308C159.992 136.113 158.578 135.942 157.687 135.299C158.01 133.878 158.085 130.305 158.156 128.695C158.275 125.707 158.452 122.723 158.688 119.743C159.549 108.844 160.709 98.3096 163.436 87.703C165.78 78.5875 167.416 71.7944 172.891 64.0141ZM220.906 168.221L271.825 168.451L274.343 168.559C272.242 166.515 271.013 165.297 269.94 162.526C254.77 162.678 239.597 162.619 224.429 162.344C223.476 164.401 222.479 166.559 220.906 168.221ZM176.26 160.69C174.842 164.482 174.068 165.729 171.024 168.402L187.767 168.394L192.345 168.317C190.33 165.548 189.382 164.053 188.441 160.755L176.26 160.69ZM122.263 169.235C130.238 168.873 138.201 169.039 146.299 168.634L152.13 168.6C149.071 166.381 148.333 164.884 147.183 161.366C141.057 161.36 133.553 161.571 127.549 161.331C126.36 164.832 125.546 167.077 122.263 169.235Z" fill="#03234D"/>
<path d="M222.72 129.276C225.336 129.547 233.691 132.482 236.366 133.499C237.899 136.444 252.001 137.185 255.359 138.29C257.422 138.969 259.104 141.183 260.972 142.35C261.88 142.919 262.813 143.314 263.862 143.534C269.826 144.782 293.717 144.952 299.462 143.504C302.264 142.797 303.455 140.866 304.845 138.516C308.725 137.257 310.942 136.704 313.388 133.232C316.325 138.998 316.07 144.68 314.099 150.801C313.83 151.654 313.518 152.491 313.165 153.311C309.25 154.779 307.845 154.991 303.743 155.679C302.739 153.948 302.422 153.346 300.793 152.163C293.258 151.651 284.221 152.269 276.447 152.121C271.354 152.026 264.235 151.943 259.146 152.404C258.247 152.486 255.274 155.055 254.342 155.798L254.101 155.834C251.757 156.196 247.561 156.057 245.082 156.023L233.331 155.855C230.147 155.798 226.248 155.839 223.127 155.155C222.849 154.979 222.464 154.288 222.419 153.994C220.947 144.492 216.129 134.538 205.721 132.998C203.864 132.724 201.734 132.887 199.809 132.857C204.21 131.159 211.744 130.517 216.165 132.606C222.355 135.533 225.235 141.545 227.468 147.699C227.416 146.27 227.279 144.739 227.177 143.303C228.538 143.609 229.225 143.654 230.627 143.75C228.822 136.924 227.628 136.772 222.398 132.008L226.048 130.851C224.73 130.305 223.962 129.967 222.72 129.276Z" fill="#CE2021"/>
<path d="M239.795 145.729C243.587 146.453 248.29 148.114 251.56 150.187L249.84 151.207C247.356 152.187 242.227 153.424 240.278 150.853C239.114 149.317 239.538 147.494 239.795 145.729Z" fill="#03234D"/>
<path d="M310.357 147.234C310.793 147.487 310.642 147.41 310.941 147.92C311.201 150.203 307.373 151.524 305.643 151.836C305.067 151.503 305.12 151.358 305.124 150.792C306.048 149.037 308.617 148.015 310.357 147.234Z" fill="#03234D"/>
<path d="M236.366 133.499L236.558 133.315C236.561 132.834 231.231 126.823 231.153 122.259C231.141 121.601 231.214 121.115 231.681 120.63C233.557 120.083 239.795 122.281 242.099 122.727C245.969 123.474 250.014 124.697 253.819 125.787C255.814 128.841 257.723 132.604 259.467 135.871C255.294 135.755 251.16 135.043 246.868 134.892C252.012 136.479 254.532 136.774 259.769 137.242C260.939 138.315 263.041 140.506 264.581 140.789C270.107 141.801 275.822 141.519 281.42 141.679C286.417 141.821 291.445 141.567 296.431 141.178C299.231 140.961 299.996 139.744 301.636 137.687C307.118 136.993 309.979 134.421 312.312 129.534L313.388 133.232C310.942 136.704 308.725 137.257 304.845 138.516C303.455 140.866 302.264 142.797 299.462 143.505C293.717 144.952 269.826 144.782 263.862 143.534C262.813 143.314 261.88 142.92 260.971 142.351C259.104 141.183 257.422 138.969 255.359 138.29C252.001 137.185 237.899 136.444 236.366 133.499Z" fill="#FEFEFE"/>
<path d="M172.891 64.0141C178.041 59.5849 192.822 59.6532 199.543 59.9732C202.588 60.1169 205.885 60.6783 208.967 60.8501C210.296 60.9549 211.055 61.0101 212.364 61.2885C212.659 62.9062 212.592 62.682 214.123 63.5259C214.064 63.5304 214.005 63.5354 213.945 63.5395C211.316 63.7225 208.533 63.4003 205.896 63.2841C198.705 62.9627 178.713 61.6235 173.959 67.207C167.161 75.1929 163.233 105.781 162.43 116.559C162.015 122.122 162.279 127.897 161.701 133.378C166.27 133.429 170.838 133.512 175.405 133.628C178.254 133.708 182.027 133.764 184.816 134.238C179.043 135.371 167.117 136.426 161.095 136.308C159.992 136.113 158.578 135.942 157.687 135.299C158.01 133.878 158.085 130.305 158.156 128.695C158.275 125.707 158.452 122.723 158.688 119.743C159.549 108.844 160.709 98.3096 163.436 87.703C165.78 78.5875 167.416 71.7944 172.891 64.0141Z" fill="#FEFEFE"/>
<path d="M184.841 149.903C185.233 145.767 185.662 143.223 187.263 139.301C192.04 127.606 204.439 122.657 216.137 126.435C218.216 127.107 220.653 128.385 222.72 129.276C223.961 129.967 224.73 130.305 226.048 130.851L222.398 132.009C227.628 136.772 228.822 136.925 230.626 143.751C229.225 143.654 228.538 143.61 227.177 143.304C227.279 144.74 227.416 146.27 227.468 147.699C225.235 141.545 222.355 135.534 216.165 132.607C211.744 130.517 204.21 131.16 199.809 132.857C190.438 136.754 187.675 142.75 186.284 152.517C183.484 152.268 180.158 152.21 177.338 152.265C165.919 152.491 154.361 150.442 143.017 150.353L141.796 150.075L141.685 149.812C156.238 149.128 170.355 147.876 184.841 149.903Z" fill="#FEFEFE"/>
<path d="M138.776 149.94C139.843 149.824 140.625 149.819 141.685 149.812L141.796 150.075L143.017 150.353L138.878 150.372L138.776 149.94Z" fill="#E3E8F3"/>
<path d="M138.878 150.372C138.221 150.372 137.137 150.459 136.626 150.152C137.228 149.852 138.073 149.938 138.776 149.94L138.878 150.372Z" fill="#8397B4"/>
<path d="M203.867 71.7259C203.314 70.9444 202.719 70.4016 202.639 69.4388C202.778 69.117 202.78 68.9665 203.083 68.7644C205.463 67.1847 237.443 69.8867 242.241 70.3844C248.906 71.0755 256.059 71.5528 262.541 73.2758C264.362 73.7608 265.77 74.4809 267.186 75.7456C276.334 83.9078 283.113 94.6157 290.737 104.155C294.919 109.387 299.904 114.063 303.26 119.91C302.511 120.456 301.316 121.276 300.464 121.547C296.984 122.657 290.964 122.599 287.288 122.585C267.887 122.511 248.091 121.633 230.198 113.294C226.376 111.512 216.527 107.1 213.682 104.312C209.18 99.9009 206.209 88.4648 203.783 82.5649C202.725 79.9907 200.552 73.1899 197.908 72.4898C193.467 71.3137 185.011 72.1535 180.89 73.7947C180.851 73.8594 180.81 73.9231 180.773 73.9891C178.613 77.8636 174.898 95.7027 176.14 99.777C177.422 103.974 191.324 104.847 195.222 105.656C196.982 106.023 198.513 106.5 200.108 107.331C195.126 108.841 190.966 107.642 185.944 107.214C184.396 107.083 184.006 106.932 182.946 107.843L183.172 108.72C180.973 107.565 178.617 106.815 176.37 105.777C175.036 105.161 173.251 104.182 172.763 102.673C171.257 98.0138 175.765 77.5531 178.286 73.1063C179.386 71.1691 181.555 70.2072 183.613 69.6643C187.808 68.5556 194.593 67.7845 198.786 69.1486C200.605 69.7416 202.231 70.7491 203.867 71.7259Z" fill="#FEFEFE"/>
<path d="M206.839 71.8871C219.883 71.3908 249.532 73.0854 261.322 77.2727C254.39 77.5281 249.946 77.0652 243.066 76.6069C248.454 78.5193 266.048 80.9167 269.351 83.2377C273.578 86.2083 277.421 91.6296 280.717 95.6655C283.329 98.8001 285.607 102.08 287.94 105.427C275.441 105.574 262.816 104.719 250.338 103.957C241.419 103.414 232.313 103.095 223.452 101.928C220.674 101.562 218.677 101.059 216.901 98.6889C214.938 96.0723 205.748 74.3586 206.173 72.4842C206.244 72.1714 206.591 72.0539 206.839 71.8871Z" fill="#03234D"/>
<path d="M200.123 145.437C200.962 145.508 204.171 146.094 204.107 147.216C203.261 147.276 201.956 147.248 201.352 147.783C201.327 148.747 202.863 150.464 203.18 152.156C203.775 155.328 202.312 157.461 200.69 159.948C202.041 161.282 202.202 160.955 203.87 161.725L203.926 162.026L203.305 162.696C202.049 163.411 201.686 163.503 200.346 163.864C200.098 163.779 199.854 163.69 199.611 163.594C192.385 160.733 192.878 148.255 200.123 145.437Z" fill="#FEFEFE"/>
<path d="M105.855 147.029C106.929 147.283 108.979 148.074 109.365 149.185C108.522 148.985 108.026 148.843 107.226 149.157C106.58 150.255 108.786 152.865 108.685 154.459C108.55 156.595 106.159 158.865 106.627 160.96C107.614 162.131 107.988 161.313 109.182 161.708C109.085 162.24 108.92 162.25 108.481 162.725C107.869 163.123 107.138 163.498 106.492 163.851C99.4097 162.593 99.1974 152.402 103.689 148.292C104.317 147.719 105.092 147.378 105.855 147.029Z" fill="#FEFEFE"/>
<path d="M307.398 124.013L307.868 124.156C309.344 125.923 310.764 130.046 309.697 132.227C308.603 134.461 305.882 135.271 303.729 136.045L301.447 136.697C301.989 133.274 302.254 131.065 302.334 127.587L307.398 124.013Z" fill="#FEFEFE"/>
<path d="M175.067 115.721C173.994 115.614 172.086 115.674 172.014 114.287C173.016 113.036 174.745 113.48 176.131 113.653C177.013 113.95 176.885 113.766 177.42 114.379C177.535 115.8 176.133 115.884 175.067 115.721Z" fill="#FEFEFE"/>
<path d="M176.131 113.653C177.013 113.95 176.885 113.766 177.42 114.38C177.535 115.8 176.133 115.884 175.067 115.721C175.285 115.157 175.827 114.22 176.131 113.653Z" fill="#E3E8F3"/>
<path d="M183.172 108.721L182.946 107.844C184.288 108.674 185.373 109.381 186.658 110.299C185.851 110.007 183.839 109.245 183.172 108.721Z" fill="#E3E8F3"/>
<path d="M110.484 153.42L110.786 153.673C111.159 154.589 111.075 154.897 111.045 155.921C110.501 155.288 110.547 154.277 110.484 153.42Z" fill="#233A70"/>
<path d="M150.258 41.0587C150.43 40.4349 150.854 39.1639 151.474 39.0012C155.274 38.0077 166.068 34.8369 169.288 34.6421C174.485 34.3271 181.732 34.5702 186.869 34.6453C194.199 34.7519 204.884 34.0192 211.843 35.0552C212.755 38.5614 212.308 47.4486 212.389 51.5505C212.43 53.693 212.488 59.1658 212.364 61.2884C211.055 61.01 210.296 60.9548 208.967 60.85C205.885 60.6782 202.588 60.1168 199.543 59.9731C192.822 59.6531 178.041 59.5848 172.891 64.014C167.416 71.7942 165.78 78.5873 163.436 87.7028C160.709 98.3095 159.549 108.844 158.688 119.743C158.452 122.723 158.275 125.707 158.156 128.695C158.085 130.305 158.01 133.878 157.687 135.299C145.995 136.082 134.193 136.186 122.486 136.737C117.885 136.954 113.226 136.685 108.639 136.83C107.454 136.814 106.91 136.821 105.718 136.963C104.696 137.079 103.749 137.192 102.729 137.357C95.8458 137.757 88.956 138.062 82.063 138.269C78.4916 138.402 74.8448 138.707 71.284 138.405C67.7434 138.106 68.9146 131.599 69.4032 129.218C85.934 128.86 102.395 127.697 118.891 126.846C125.758 126.5 132.622 126.1 139.483 125.642C144.364 125.334 149.123 125.195 153.948 124.344C147.459 123.517 139.06 124.057 132.267 124.02L89.7102 123.713L78.3396 123.678C76.9203 123.672 72.9357 123.678 71.6615 123.411C72.8848 122.656 93.2622 121.498 95.7176 121.324L128.513 118.75C137.949 118.023 146.993 117.495 156.404 116.361L157.437 113.479C151.381 113.31 142.857 114.228 136.509 114.574C119.609 115.659 102.699 116.605 85.7827 117.409C85.6094 113.95 85.6194 110.815 85.6439 107.353L85.6998 104.191C90.0311 102.494 96.1152 100.75 100.711 99.1931C96.3186 99.8151 90.2578 99.675 85.5817 100.08C80.8359 100.104 75.6424 100.786 70.8702 101.201L48.7219 103.019C45.6773 103.262 39.0249 103.955 36.2975 103.8C43.7331 101.793 51.1566 99.7305 58.5639 97.6102C64.3352 95.9907 70.2529 94.4403 75.9859 92.7494C75.1952 92.1184 74.4134 91.4743 73.6416 90.8189C82.3978 88.5892 91.0956 86.3559 99.5767 83.1864C88.4586 83.586 76.6145 84.7269 65.4826 85.5875C54.6917 86.4047 43.8894 87.0601 33.0784 87.5528C32.2765 87.5925 24.2921 88.1295 24.1765 88.1015L24.2167 87.9428C24.9257 87.5618 29.6476 86.8363 30.7542 86.6244L50.95 82.7896L84.5022 76.0299C94.5753 73.9304 105.253 71.5687 115.351 69.7765C115.318 68.6162 115.378 67.4162 115.412 66.2527C121.2 64.8872 134.127 62.3687 139.304 60.0309C139.664 59.9681 141.769 59.2106 142.308 59.0361C145.305 58.0711 147.441 58.3938 150.486 58.6555C150.566 53.4462 150.303 48.2491 150.432 43.0281C150.494 42.4897 150.337 41.6309 150.258 41.0587Z" fill="#03234D"/>
<path d="M139.304 60.0312C139.664 59.9683 141.769 59.2108 142.308 59.0363C145.305 58.0713 147.441 58.394 150.486 58.6557C152.321 58.9635 154.337 58.9107 156.207 58.959C160.432 59.0693 164.379 58.9419 168.581 59.571C167.425 62.9597 167.579 63.5532 167.871 67.1425C164.42 71.5576 162.123 78.3643 161.133 83.8697C160.973 84.6308 160.807 85.3906 160.63 86.1491C159.274 85.9027 155.586 85.9796 153.967 85.9615C152.056 85.4214 149.282 85.5506 147.34 85.6352L147.742 83.6084C141.87 83.4818 135.567 82.8915 129.772 83.297C128.583 83.3797 125.334 84.2389 124.035 84.5373C121.284 85.1447 118.528 85.7319 115.768 86.2919C115.627 83.363 115.621 81.4609 115.748 78.5514L118.245 77.9272L118.26 74.4952C114.37 75.1691 110.003 75.8625 106.362 77.3785C106.406 80.9515 106.592 84.5223 106.92 88.0805L95.3911 90.1515C92.832 90.6076 88.3569 91.3959 85.9158 92.2267C85.3933 95.2741 85.5007 97.0188 85.5817 100.081C80.8359 100.105 75.6424 100.786 70.8702 101.201L48.7219 103.02C45.6773 103.262 39.0249 103.956 36.2975 103.8C43.7331 101.793 51.1567 99.7308 58.5639 97.6104C64.3352 95.9909 70.2529 94.4406 75.9859 92.7496C75.1952 92.1186 74.4134 91.4746 73.6416 90.8192C82.3978 88.5894 91.0956 86.3561 99.5767 83.1867C88.4586 83.5862 76.6145 84.7271 65.4826 85.5877C54.6917 86.4049 43.8894 87.0603 33.0784 87.553C32.2765 87.5928 24.2921 88.1297 24.1765 88.1017L24.2167 87.9431C24.9257 87.562 29.6476 86.8366 30.7542 86.6246L50.95 82.7898L84.5022 76.0302C94.5753 73.9306 105.253 71.5689 115.351 69.7767C115.318 68.6165 115.378 67.4164 115.412 66.2529C121.2 64.8875 134.127 62.3689 139.304 60.0312Z" fill="#CE2021"/>
<path d="M147.742 83.6082C152.341 83.6046 156.534 83.568 161.133 83.8695C160.973 84.6306 160.807 85.3904 160.63 86.1489C159.274 85.9026 155.586 85.9794 153.967 85.9613C152.056 85.4212 149.282 85.5504 147.34 85.635L147.742 83.6082Z" fill="#851C24"/>
<path d="M154.159 61.0118C155.734 60.9824 157.372 61.0109 158.952 61.0127C158.984 63.8377 159.04 66.6636 159.119 69.4868L154.047 69.4881C154.043 66.6911 154.119 63.8146 154.159 61.0118Z" fill="#FEFEFE"/>
<path d="M186.499 37.2221C187.976 37.1629 192.189 37.1362 193.599 37.4612C198.615 37.7632 204.215 37.5566 209.345 37.6958C209.442 41.2698 209.805 57.7063 209.091 60.2827L208.967 60.85C205.885 60.6782 202.588 60.1168 199.543 59.9731C192.822 59.6531 178.041 59.5848 172.891 64.014C171.77 64.0781 171.268 64.2504 170.219 64.6847L170.032 64.6617C169.29 63.0625 169.619 40.3739 169.643 37.5955C174.635 37.4793 180.821 37.995 185.61 37.3677C185.693 37.3365 186.364 37.2429 186.499 37.2221Z" fill="#FEFEFE"/>
<path d="M170.219 64.6848C170.563 63.9368 171.679 62.2002 172.248 61.7165C177.094 57.5866 204.69 55.8265 209.091 60.2828L208.967 60.8501C205.885 60.6783 202.588 60.1169 199.543 59.9732C192.822 59.6532 178.041 59.5849 172.891 64.0141C171.77 64.0782 171.268 64.2505 170.219 64.6848Z" fill="#03234D"/>
<path d="M186.499 37.2221C187.976 37.1629 192.188 37.1362 193.599 37.4612C193.566 39.1734 193.551 40.8847 193.554 42.5968C191.288 42.5634 189.022 42.5742 186.755 42.6289C186.55 40.9882 186.547 38.9054 186.499 37.2221Z" fill="#005AB9"/>
<path d="M186.755 42.6292C189.022 42.5745 191.288 42.5636 193.554 42.5971V47.1126C191.552 47.1867 187.896 47.4715 186.083 46.9313C185.645 46.44 185.816 46.7392 185.819 45.8474C186.246 44.3341 185.533 44.0024 186.755 42.6292Z" fill="#03234D"/>
<path d="M185.61 37.3677C185.693 37.3365 186.364 37.243 186.5 37.2222C186.547 38.9054 186.55 40.9882 186.755 42.629C185.533 44.0022 186.246 44.3339 185.819 45.8472C185.731 44.1631 185.98 38.5492 185.61 37.3677Z" fill="#233A70"/>
<path d="M147.34 85.6349C149.282 85.5504 152.056 85.4211 153.967 85.9613C155.586 85.9794 159.274 85.9025 160.63 86.1489C158.843 93.0224 157.086 103.269 156.482 110.335C148.159 110.623 139.394 112.054 131.092 112.325L131.117 85.7746C136.481 86.0277 141.708 85.9744 147.077 85.9685L147.34 85.6349Z" fill="#FEFEFE"/>
<path d="M147.34 85.6349C149.282 85.5504 152.056 85.4211 153.967 85.9613C153.91 89.0362 154.098 92.7087 154.181 95.8253L147.024 95.8239C146.877 92.6265 146.988 89.1628 147.077 85.9685L147.34 85.6349Z" fill="#CE2021"/>
<path d="M112.017 79.1312C113.537 78.9997 114.257 78.8848 115.748 78.5513C115.621 81.4608 115.627 83.3628 115.768 86.2918L112.27 87.1189C112.091 84.2316 112.024 82.0186 112.017 79.1312Z" fill="#EA302E"/>
<path d="M127.928 48.7105C133.354 46.8401 139.026 45.2152 144.431 43.1306C146.316 42.4028 148.428 41.8546 150.258 41.0586C150.337 41.6308 150.494 42.4896 150.432 43.028C150.303 48.249 150.566 53.4461 150.486 58.6554C147.441 58.3937 145.305 58.071 142.308 59.036C141.769 59.2105 139.665 59.968 139.304 60.0308L139.175 59.8523C136.47 60.4236 133.741 60.8973 131.033 61.4691C117.081 64.4216 102.704 65.6442 88.5378 67.1191L74.6835 68.5217C72.8886 68.6948 69.8855 69.0785 68.1516 69.1133L67.5255 68.3928C73.8978 67.1562 81.2837 65.2523 87.7446 63.787L126.485 55.0281C126.686 53.3403 126.495 52.3568 128.151 51.6381C127.989 50.8349 127.969 49.5639 127.928 48.7105Z" fill="#CE2021"/>
<path d="M127.928 48.7105C133.354 46.8401 139.026 45.2152 144.431 43.1306C146.316 42.4028 148.428 41.8546 150.258 41.0586C150.337 41.6308 150.494 42.4896 150.432 43.028C150.303 48.249 150.566 53.4461 150.486 58.6554C147.441 58.3937 145.305 58.071 142.308 59.036C141.769 59.2105 139.664 59.968 139.304 60.0308L139.175 59.8523C139.545 59.615 139.656 59.5269 139.996 59.2575C140.604 57.661 140.28 53.2924 140.231 51.3506C141.532 51.4401 142.687 51.4722 143.993 51.4912C145.572 50.4602 149.365 49.356 149.876 48.3652C149.751 47.9489 149.78 47.7844 149.255 47.548C148.478 47.199 146.488 47.5728 145.629 47.6818C141.732 48.1735 137.978 48.8588 134.174 49.8405C132.101 50.3775 130.163 51.0962 128.151 51.6381C127.989 50.8349 127.969 49.5639 127.928 48.7105Z" fill="#FEFEFE"/>
<path d="M127.928 48.7105C133.354 46.8401 139.026 45.2152 144.431 43.1306C146.316 42.4028 148.428 41.8546 150.258 41.0586C150.337 41.6308 150.494 42.4896 150.432 43.028C148.234 43.4849 145.792 44.9517 143.802 45.6107C140.718 46.6313 130.607 49.9083 127.928 48.7105Z" fill="#EA302E"/>
<path d="M135.87 52.2588L136.211 52.3207C135.419 53.2464 130.029 53.9307 128.609 54.1617L128.18 54.0907L128.418 53.829L128.404 54.0049L128.566 53.7653C130.173 53.208 134.092 52.5811 135.87 52.2588Z" fill="#FEE1E3"/>
<path d="M85.6439 107.353C85.6194 110.815 85.6094 113.95 85.7827 117.409C63.5521 117.872 41.4057 117.925 19.1739 117.832C16.9382 117.822 14.6573 118.108 12.431 118.033C16.1796 117.159 20.151 116.73 23.9799 116.192L42.4997 113.545L68.247 109.639C73.9593 108.786 79.9027 107.824 85.6439 107.353Z" fill="#CE2021"/>
<path d="M68.1516 69.1136C66.1263 69.3924 63.8379 69.7251 61.8138 69.8734C62.413 69.3138 66.4623 68.6023 67.5255 68.3931L68.1516 69.1136Z" fill="#EA302E"/>
<path d="M89.2235 153.15C90.0142 153.276 90.7088 153.313 91.3964 153.707C90.7609 153.859 90.9122 153.883 90.2943 153.84C89.5627 153.699 89.0848 153.757 88.1886 153.553C88.6301 153.191 88.6018 153.279 89.2235 153.15Z" fill="#FEFEFE" fill-opacity="0.0235294"/>
<path d="M102.729 137.357C103.749 137.192 104.696 137.08 105.718 136.963L104.76 137.451C103.784 137.716 103.214 137.885 102.28 138.264C102.356 137.742 102.388 137.771 102.729 137.357Z" fill="#FEFEFE" fill-opacity="0.0196078"/>
<path d="M105.718 136.963C106.91 136.822 107.454 136.814 108.639 136.831L108.737 137.043C107.378 137.277 106.115 137.276 104.76 137.451L105.718 136.963Z" fill="#8397B4" fill-opacity="0.560784"/>
</g>
<g filter="url(#filter1_d_239_146)">
<path d="M189.022 145.908L188.185 155H151.938L152.656 137.774L151.938 97.3402H188.544L189.262 98.2972L188.424 107.389L174.548 106.91H164.14L163.901 120.787L173.95 121.026L183.28 120.787L183.998 121.624L183.161 130.716L172.993 130.477L163.781 130.596L163.662 136.697L163.901 145.43L174.069 145.55L188.305 144.951L189.022 145.908ZM211.195 112.533C216.539 112.533 220.526 113.569 223.158 115.643C225.79 117.717 227.106 120.588 227.106 124.256C227.106 125.293 226.906 128.682 226.507 134.424C226.507 134.424 226.388 137.694 226.149 144.234C226.149 145.27 226.268 145.988 226.507 146.387C226.747 146.706 227.225 146.865 227.943 146.865C228.661 146.865 229.498 146.746 230.455 146.507L231.412 147.224L230.216 153.445C228.302 154.641 226.149 155.399 223.756 155.718C219.928 155.399 217.615 153.206 216.818 149.138H216.22C213.189 152.328 210.119 154.561 207.008 155.837C202.702 155.758 199.312 154.601 196.84 152.368C194.368 150.135 193.132 147.145 193.132 143.396C193.132 137.574 196.202 134.065 202.343 132.869L216.1 130.357V126.649C216.1 122.741 214.266 120.787 210.597 120.787C206.929 120.787 202.622 122.502 197.678 125.931L196.721 125.452L195.405 117.557C200.668 114.207 205.932 112.533 211.195 112.533ZM206.53 138.372C204.696 138.771 203.779 139.887 203.779 141.721C203.779 145.31 205.334 147.105 208.444 147.105C210.757 147.105 213.229 145.709 215.861 142.918L216.1 136.219L206.53 138.372ZM245.941 113.25H268.55V120.308L248.453 147.344H261.134L268.79 146.626L269.388 147.464L268.55 155.12L258.143 155H241.635L235.893 155.239V148.301L256.229 121.026H244.266L236.85 121.624L236.132 120.787L236.969 113.131L245.941 113.25ZM291.592 142.918H292.19L299.487 120.787L301.042 113.25H311.33L297.812 152.129C295.898 157.791 293.267 162.098 289.917 165.049C286.568 168.079 281.822 170.472 275.682 172.226L274.844 172.107C272.691 170.193 270.936 167.8 269.581 164.929L269.939 163.733C276.878 162.536 282.42 159.626 286.568 155L271.255 113.609L282.739 113.011L284.055 119.71L291.592 142.918Z" fill="#03234D"/>
<path d="M340.564 97.2206C346.545 97.2206 351.131 98.7358 354.321 101.766C357.591 104.797 359.225 108.864 359.225 113.968C359.225 118.993 358.268 123.1 356.354 126.29C354.52 129.48 351.809 131.992 348.22 133.826C344.711 135.66 340.564 136.578 335.779 136.578H330.037V136.697L330.515 155H318.313L319.031 137.774L318.313 97.3402L340.564 97.2206ZM346.665 115.882C346.665 112.612 345.827 110.22 344.153 108.705C342.558 107.11 340.045 106.272 336.616 106.193L330.515 106.551L330.276 127.247L338.411 127.725C343.913 126.05 346.665 122.103 346.665 115.882ZM383.12 112.533C389.5 112.533 394.285 114.327 397.475 117.916C400.665 121.505 402.26 126.808 402.26 133.826C402.26 140.844 400.506 146.307 396.997 150.215C393.567 154.043 388.703 155.957 382.402 155.957C376.182 155.957 371.437 154.163 368.167 150.574C364.977 146.905 363.382 141.562 363.382 134.544C363.382 127.526 365.096 122.103 368.526 118.275C371.955 114.447 376.82 112.533 383.12 112.533ZM382.761 120.548C379.89 120.548 377.817 121.545 376.541 123.538C375.265 125.452 374.627 128.842 374.627 133.707C374.627 138.571 375.265 142.16 376.541 144.473C377.817 146.706 379.93 147.822 382.881 147.822C385.832 147.822 387.945 146.905 389.221 145.071C390.497 143.237 391.135 139.887 391.135 135.022C391.135 130.158 390.457 126.529 389.101 124.136C387.746 121.744 385.632 120.548 382.761 120.548ZM423.537 112.652C428.082 112.573 432.15 113.25 435.739 114.686L434.183 123.419L432.748 123.897C429.159 121.584 425.889 120.428 422.939 120.428C421.503 120.428 420.347 120.827 419.469 121.624C418.672 122.342 418.273 123.259 418.273 124.376C418.273 125.492 418.831 126.449 419.948 127.247C421.064 128.044 422.819 128.921 425.211 129.879C427.604 130.836 429.558 131.793 431.073 132.75C432.668 133.627 434.024 134.863 435.14 136.458C436.257 137.973 436.815 139.927 436.815 142.32C436.815 144.712 436.217 146.945 435.021 149.019C432.23 153.644 427.245 155.957 420.068 155.957C415.761 155.957 411.295 155.04 406.669 153.206L408.105 143.875L409.182 143.157C411.016 144.752 413.089 146.028 415.402 146.985C417.715 147.862 419.709 148.301 421.383 148.301C423.058 148.301 424.334 147.902 425.211 147.105C426.089 146.307 426.527 145.35 426.527 144.234C426.527 143.037 425.969 142.04 424.853 141.243C423.736 140.366 421.982 139.449 419.589 138.492C417.196 137.455 415.243 136.498 413.727 135.621C409.899 133.467 407.985 130.317 407.985 126.17C407.985 122.023 409.421 118.753 412.292 116.361C415.243 113.888 418.991 112.652 423.537 112.652ZM461.74 146.148C463.574 146.148 465.528 145.669 467.601 144.712L468.558 145.669L467.362 152.607C464.411 154.202 461.341 155.16 458.151 155.479C450.096 154.681 446.029 150.773 445.949 143.755L446.428 136.219V120.787H440.805L440.327 120.308L440.925 113.729H446.188V106.791L457.074 103.321L457.912 104.039L457.553 113.729H468.319L468.678 114.327L468.2 120.787H457.433L456.955 140.884C456.955 142.798 457.274 144.154 457.912 144.951C458.629 145.749 459.905 146.148 461.74 146.148Z" fill="#CE2021"/>
<path d="M486.85 155V141H488.85V153.26H496.43V155H486.85ZM498.725 155V141H500.725V153.26H508.305V155H498.725ZM516.606 155.16C515.539 155.16 514.553 154.987 513.646 154.64C512.753 154.28 511.973 153.78 511.306 153.14C510.653 152.487 510.139 151.727 509.766 150.86C509.393 149.993 509.206 149.04 509.206 148C509.206 146.96 509.393 146.007 509.766 145.14C510.139 144.273 510.659 143.52 511.326 142.88C511.993 142.227 512.773 141.727 513.666 141.38C514.573 141.02 515.559 140.84 516.626 140.84C517.706 140.84 518.699 141.027 519.606 141.4C520.526 141.76 521.306 142.3 521.946 143.02L520.646 144.28C520.113 143.72 519.513 143.307 518.846 143.04C518.179 142.76 517.466 142.62 516.706 142.62C515.919 142.62 515.186 142.753 514.506 143.02C513.839 143.287 513.259 143.66 512.766 144.14C512.273 144.62 511.886 145.193 511.606 145.86C511.339 146.513 511.206 147.227 511.206 148C511.206 148.773 511.339 149.493 511.606 150.16C511.886 150.813 512.273 151.38 512.766 151.86C513.259 152.34 513.839 152.713 514.506 152.98C515.186 153.247 515.919 153.38 516.706 153.38C517.466 153.38 518.179 153.247 518.846 152.98C519.513 152.7 520.113 152.273 520.646 151.7L521.946 152.96C521.306 153.68 520.526 154.227 519.606 154.6C518.699 154.973 517.699 155.16 516.606 155.16Z" fill="white"/>
</g>
<mask id="path-41-outside-1_239_146" maskUnits="userSpaceOnUse" x="148" y="95" width="168" height="82" fill="black">
<rect fill="white" x="148" y="95" width="168" height="82"/>
<path d="M189.022 146.908L188.185 156H151.938L152.656 138.774L151.938 98.3402H188.544L189.262 99.2972L188.424 108.389L174.548 107.91H164.14L163.901 121.787L173.95 122.026L183.28 121.787L183.998 122.624L183.161 131.716L172.993 131.477L163.781 131.596L163.662 137.697L163.901 146.43L174.069 146.55L188.305 145.951L189.022 146.908ZM211.195 113.533C216.539 113.533 220.526 114.569 223.158 116.643C225.79 118.717 227.106 121.588 227.106 125.256C227.106 126.293 226.906 129.682 226.507 135.424C226.507 135.424 226.388 138.694 226.149 145.234C226.149 146.27 226.268 146.988 226.507 147.387C226.747 147.706 227.225 147.865 227.943 147.865C228.661 147.865 229.498 147.746 230.455 147.507L231.412 148.224L230.216 154.445C228.302 155.641 226.149 156.399 223.756 156.718C219.928 156.399 217.615 154.206 216.818 150.138H216.22C213.189 153.328 210.119 155.561 207.008 156.837C202.702 156.758 199.312 155.601 196.84 153.368C194.368 151.135 193.132 148.145 193.132 144.396C193.132 138.574 196.202 135.065 202.343 133.869L216.1 131.357V127.649C216.1 123.741 214.266 121.787 210.597 121.787C206.929 121.787 202.622 123.502 197.678 126.931L196.721 126.452L195.405 118.557C200.668 115.207 205.932 113.533 211.195 113.533ZM206.53 139.372C204.696 139.771 203.779 140.887 203.779 142.721C203.779 146.31 205.334 148.105 208.444 148.105C210.757 148.105 213.229 146.709 215.861 143.918L216.1 137.219L206.53 139.372ZM245.941 114.25H268.55V121.308L248.453 148.344H261.134L268.79 147.626L269.388 148.464L268.55 156.12L258.143 156H241.635L235.893 156.239V149.301L256.229 122.026H244.266L236.85 122.624L236.132 121.787L236.969 114.131L245.941 114.25ZM291.592 143.918H292.19L299.487 121.787L301.042 114.25H311.33L297.812 153.129C295.898 158.791 293.267 163.098 289.917 166.049C286.568 169.079 281.822 171.472 275.682 173.226L274.844 173.107C272.691 171.193 270.936 168.8 269.581 165.929L269.939 164.733C276.878 163.536 282.42 160.626 286.568 156L271.255 114.609L282.739 114.011L284.055 120.71L291.592 143.918Z"/>
</mask>
<path d="M189.022 146.908L188.185 156H151.938L152.656 138.774L151.938 98.3402H188.544L189.262 99.2972L188.424 108.389L174.548 107.91H164.14L163.901 121.787L173.95 122.026L183.28 121.787L183.998 122.624L183.161 131.716L172.993 131.477L163.781 131.596L163.662 137.697L163.901 146.43L174.069 146.55L188.305 145.951L189.022 146.908ZM211.195 113.533C216.539 113.533 220.526 114.569 223.158 116.643C225.79 118.717 227.106 121.588 227.106 125.256C227.106 126.293 226.906 129.682 226.507 135.424C226.507 135.424 226.388 138.694 226.149 145.234C226.149 146.27 226.268 146.988 226.507 147.387C226.747 147.706 227.225 147.865 227.943 147.865C228.661 147.865 229.498 147.746 230.455 147.507L231.412 148.224L230.216 154.445C228.302 155.641 226.149 156.399 223.756 156.718C219.928 156.399 217.615 154.206 216.818 150.138H216.22C213.189 153.328 210.119 155.561 207.008 156.837C202.702 156.758 199.312 155.601 196.84 153.368C194.368 151.135 193.132 148.145 193.132 144.396C193.132 138.574 196.202 135.065 202.343 133.869L216.1 131.357V127.649C216.1 123.741 214.266 121.787 210.597 121.787C206.929 121.787 202.622 123.502 197.678 126.931L196.721 126.452L195.405 118.557C200.668 115.207 205.932 113.533 211.195 113.533ZM206.53 139.372C204.696 139.771 203.779 140.887 203.779 142.721C203.779 146.31 205.334 148.105 208.444 148.105C210.757 148.105 213.229 146.709 215.861 143.918L216.1 137.219L206.53 139.372ZM245.941 114.25H268.55V121.308L248.453 148.344H261.134L268.79 147.626L269.388 148.464L268.55 156.12L258.143 156H241.635L235.893 156.239V149.301L256.229 122.026H244.266L236.85 122.624L236.132 121.787L236.969 114.131L245.941 114.25ZM291.592 143.918H292.19L299.487 121.787L301.042 114.25H311.33L297.812 153.129C295.898 158.791 293.267 163.098 289.917 166.049C286.568 169.079 281.822 171.472 275.682 173.226L274.844 173.107C272.691 171.193 270.936 168.8 269.581 165.929L269.939 164.733C276.878 163.536 282.42 160.626 286.568 156L271.255 114.609L282.739 114.011L284.055 120.71L291.592 143.918Z" fill="white"/>
<path d="M189.022 146.908L192.01 147.184L192.116 146.033L191.422 145.108L189.022 146.908ZM188.185 156V159H190.921L191.172 156.275L188.185 156ZM151.938 156L148.941 155.875L148.811 159H151.938V156ZM152.656 138.774L155.653 138.899L155.657 138.81L155.656 138.721L152.656 138.774ZM151.938 98.3402V95.3402H148.885L148.939 98.3934L151.938 98.3402ZM188.544 98.3402L190.944 96.5402L190.044 95.3402H188.544V98.3402ZM189.262 99.2972L192.249 99.5723L192.355 98.4217L191.662 97.4972L189.262 99.2972ZM188.424 108.389L188.321 111.387L191.152 111.485L191.412 108.664L188.424 108.389ZM174.548 107.91L174.651 104.912L174.599 104.91H174.548V107.91ZM164.14 107.91V104.91H161.191L161.141 107.859L164.14 107.91ZM163.901 121.787L160.901 121.735L160.85 124.715L163.83 124.786L163.901 121.787ZM173.95 122.026L173.878 125.025L173.952 125.027L174.026 125.025L173.95 122.026ZM183.28 121.787L185.558 119.835L184.63 118.751L183.203 118.788L183.28 121.787ZM183.998 122.624L186.985 122.899L187.102 121.636L186.276 120.672L183.998 122.624ZM183.161 131.716L183.09 134.715L185.891 134.781L186.148 131.991L183.161 131.716ZM172.993 131.477L173.063 128.477L173.008 128.476L172.954 128.477L172.993 131.477ZM163.781 131.596L163.742 128.597L160.839 128.634L160.782 131.537L163.781 131.596ZM163.662 137.697L160.662 137.638L160.661 137.709L160.663 137.779L163.662 137.697ZM163.901 146.43L160.902 146.512L160.981 149.396L163.866 149.43L163.901 146.43ZM174.069 146.55L174.034 149.549L174.115 149.55L174.195 149.547L174.069 146.55ZM188.305 145.951L190.705 144.151L189.757 142.888L188.179 142.954L188.305 145.951ZM189.022 146.908L186.035 146.633L185.198 155.725L188.185 156L191.172 156.275L192.01 147.184L189.022 146.908ZM188.185 156V153H151.938V156V159H188.185V156ZM151.938 156L154.936 156.125L155.653 138.899L152.656 138.774L149.659 138.649L148.941 155.875L151.938 156ZM152.656 138.774L155.656 138.721L154.938 98.2869L151.938 98.3402L148.939 98.3934L149.657 138.827L152.656 138.774ZM151.938 98.3402V101.34H188.544V98.3402V95.3402H151.938V98.3402ZM188.544 98.3402L186.144 100.14L186.862 101.097L189.262 99.2972L191.662 97.4972L190.944 96.5402L188.544 98.3402ZM189.262 99.2972L186.274 99.022L185.437 108.114L188.424 108.389L191.412 108.664L192.249 99.5723L189.262 99.2972ZM188.424 108.389L188.528 105.391L174.651 104.912L174.548 107.91L174.444 110.908L188.321 111.387L188.424 108.389ZM174.548 107.91V104.91H164.14V107.91V110.91H174.548V107.91ZM164.14 107.91L161.141 107.859L160.901 121.735L163.901 121.787L166.9 121.839L167.14 107.962L164.14 107.91ZM163.901 121.787L163.83 124.786L173.878 125.025L173.95 122.026L174.021 119.027L163.972 118.788L163.901 121.787ZM173.95 122.026L174.026 125.025L183.357 124.786L183.28 121.787L183.203 118.788L173.873 119.027L173.95 122.026ZM183.28 121.787L181.003 123.739L181.72 124.577L183.998 122.624L186.276 120.672L185.558 119.835L183.28 121.787ZM183.998 122.624L181.011 122.349L180.173 131.441L183.161 131.716L186.148 131.991L186.985 122.899L183.998 122.624ZM183.161 131.716L183.231 128.717L173.063 128.477L172.993 131.477L172.922 134.476L183.09 134.715L183.161 131.716ZM172.993 131.477L172.954 128.477L163.742 128.597L163.781 131.596L163.82 134.596L173.031 134.476L172.993 131.477ZM163.781 131.596L160.782 131.537L160.662 137.638L163.662 137.697L166.661 137.756L166.781 131.655L163.781 131.596ZM163.662 137.697L160.663 137.779L160.902 146.512L163.901 146.43L166.9 146.348L166.661 137.615L163.662 137.697ZM163.901 146.43L163.866 149.43L174.034 149.549L174.069 146.55L174.104 143.55L163.936 143.43L163.901 146.43ZM174.069 146.55L174.195 149.547L188.431 148.949L188.305 145.951L188.179 142.954L173.943 143.552L174.069 146.55ZM188.305 145.951L185.905 147.751L186.622 148.708L189.022 146.908L191.422 145.108L190.705 144.151L188.305 145.951ZM223.158 116.643L221.301 118.999H221.301L223.158 116.643ZM226.507 135.424L223.515 135.216L223.511 135.266L223.509 135.315L226.507 135.424ZM226.149 145.234L223.151 145.124L223.149 145.179V145.234H226.149ZM226.507 147.387L223.935 148.93L224.015 149.063L224.107 149.187L226.507 147.387ZM230.455 147.507L232.255 145.107L231.113 144.25L229.728 144.596L230.455 147.507ZM231.412 148.224L234.358 148.791L234.712 146.949L233.212 145.824L231.412 148.224ZM230.216 154.445L231.806 156.989L232.915 156.296L233.162 155.011L230.216 154.445ZM223.756 156.718L223.507 159.707L223.831 159.734L224.153 159.691L223.756 156.718ZM216.818 150.138L219.762 149.561L219.287 147.138H216.818V150.138ZM216.22 150.138V147.138H214.932L214.045 148.072L216.22 150.138ZM207.008 156.837L206.953 159.837L207.573 159.848L208.147 159.613L207.008 156.837ZM196.84 153.368L198.851 151.142V151.142L196.84 153.368ZM202.343 133.869L201.804 130.918L201.787 130.921L201.769 130.925L202.343 133.869ZM216.1 131.357L216.639 134.308L219.1 133.859V131.357H216.1ZM197.678 126.931L196.336 129.614L197.926 130.409L199.387 129.396L197.678 126.931ZM196.721 126.452L193.761 126.946L194.013 128.452L195.379 129.136L196.721 126.452ZM195.405 118.557L193.794 116.026L192.119 117.092L192.445 119.05L195.405 118.557ZM206.53 139.372L207.167 142.303L207.178 142.301L207.188 142.299L206.53 139.372ZM215.861 143.918L218.044 145.976L218.819 145.154L218.859 144.025L215.861 143.918ZM216.1 137.219L219.098 137.326L219.237 133.438L215.441 134.292L216.1 137.219ZM211.195 113.533V116.533C216.239 116.533 219.432 117.527 221.301 118.999L223.158 116.643L225.015 114.287C221.62 111.612 216.839 110.533 211.195 110.533V113.533ZM223.158 116.643L221.301 118.999C223.136 120.445 224.106 122.407 224.106 125.256H227.106H230.106C230.106 120.768 228.443 116.988 225.015 114.287L223.158 116.643ZM227.106 125.256H224.106C224.106 126.161 223.918 129.414 223.515 135.216L226.507 135.424L229.5 135.632C229.895 129.95 230.106 126.425 230.106 125.256H227.106ZM226.507 135.424C223.509 135.315 223.509 135.315 223.509 135.315C223.509 135.315 223.509 135.315 223.509 135.315C223.509 135.315 223.509 135.315 223.509 135.315C223.509 135.315 223.509 135.315 223.509 135.315C223.509 135.316 223.509 135.315 223.509 135.316C223.509 135.316 223.509 135.316 223.509 135.316C223.509 135.317 223.509 135.317 223.509 135.317C223.509 135.318 223.509 135.322 223.509 135.324C223.509 135.327 223.509 135.323 223.509 135.327C223.509 135.33 223.509 135.326 223.509 135.33C223.509 135.33 223.509 135.332 223.509 135.333C223.509 135.336 223.509 135.333 223.509 135.336C223.508 135.344 223.509 135.336 223.508 135.344C223.508 135.346 223.508 135.35 223.508 135.353C223.506 135.409 223.509 135.338 223.506 135.401C223.506 135.415 223.505 135.448 223.504 135.468C223.502 135.522 223.493 135.772 223.487 135.928C223.486 135.969 223.487 135.925 223.486 135.967C223.485 135.996 223.486 135.957 223.485 135.987C223.485 135.99 223.485 135.993 223.485 135.997C223.484 136 223.484 136.003 223.484 136.007C223.484 136.01 223.484 136.014 223.484 136.017C223.484 136.02 223.484 136.024 223.483 136.027C223.483 136.048 223.483 136.028 223.483 136.048C223.482 136.058 223.481 136.08 223.481 136.091C223.478 136.187 223.481 136.081 223.478 136.179C223.477 136.208 223.477 136.196 223.476 136.225C223.473 136.314 223.478 136.184 223.474 136.273C223.474 136.277 223.474 136.281 223.474 136.285C223.474 136.289 223.474 136.293 223.474 136.297C223.473 136.315 223.473 136.302 223.473 136.321C223.471 136.371 223.473 136.321 223.471 136.371C223.468 136.451 223.47 136.392 223.467 136.474C223.465 136.543 223.468 136.458 223.465 136.527C223.463 136.596 223.466 136.512 223.463 136.581C223.463 136.587 223.462 136.604 223.462 136.609C223.462 136.614 223.462 136.618 223.462 136.623C223.461 136.628 223.461 136.632 223.461 136.637C223.458 136.723 223.462 136.607 223.459 136.694C223.453 136.866 223.43 137.493 223.42 137.767C223.418 137.808 223.42 137.764 223.418 137.805C223.418 137.812 223.418 137.818 223.418 137.825C223.417 137.831 223.417 137.838 223.417 137.844C223.417 137.851 223.416 137.857 223.416 137.864C223.416 137.87 223.416 137.877 223.416 137.883C223.414 137.931 223.416 137.874 223.414 137.923C223.41 138.035 223.415 137.89 223.411 138.002C223.409 138.056 223.412 137.988 223.41 138.043C223.409 138.049 223.409 138.056 223.409 138.063C223.409 138.07 223.408 138.076 223.408 138.083C223.408 138.09 223.408 138.097 223.407 138.103C223.407 138.11 223.407 138.117 223.407 138.124C223.404 138.184 223.407 138.105 223.405 138.165C223.401 138.272 223.406 138.141 223.402 138.248C223.402 138.264 223.397 138.401 223.396 138.418C223.389 138.602 223.377 138.937 223.369 139.146C223.369 139.154 223.369 139.162 223.368 139.17C223.368 139.178 223.368 139.186 223.368 139.194C223.366 139.238 223.367 139.199 223.366 139.243C223.363 139.329 223.365 139.254 223.362 139.34C223.36 139.388 223.362 139.342 223.36 139.39C223.357 139.474 223.362 139.354 223.359 139.439C223.358 139.447 223.358 139.456 223.358 139.464C223.357 139.472 223.357 139.481 223.357 139.489C223.355 139.542 223.357 139.486 223.355 139.539C223.347 139.767 223.348 139.717 223.34 139.951C223.338 140.013 223.34 139.942 223.338 140.004C223.335 140.083 223.339 139.978 223.336 140.057C223.336 140.066 223.335 140.075 223.335 140.084C223.335 140.093 223.334 140.102 223.334 140.11C223.332 140.176 223.334 140.098 223.332 140.164C223.329 140.241 223.331 140.195 223.328 140.273C223.326 140.343 223.329 140.257 223.326 140.327C223.323 140.403 223.327 140.307 223.324 140.382C223.324 140.391 223.323 140.401 223.323 140.41C223.323 140.419 223.322 140.428 223.322 140.437C223.319 140.512 223.323 140.418 223.32 140.493C223.317 140.564 223.319 140.533 223.316 140.605C223.313 140.685 223.317 140.581 223.314 140.661C223.311 140.732 223.314 140.647 223.312 140.718C223.311 140.727 223.311 140.737 223.311 140.746C223.31 140.756 223.31 140.766 223.31 140.775C223.309 140.785 223.309 140.794 223.309 140.804C223.308 140.813 223.308 140.823 223.308 140.832C223.3 141.035 223.281 141.562 223.273 141.79C223.272 141.801 223.272 141.811 223.271 141.821C223.271 141.832 223.271 141.842 223.27 141.853C223.266 141.965 223.272 141.803 223.268 141.915C223.266 141.968 223.265 141.989 223.263 142.042C223.263 142.052 223.263 142.063 223.262 142.074C223.262 142.084 223.261 142.095 223.261 142.105C223.259 142.157 223.261 142.117 223.259 142.169C223.258 142.18 223.258 142.191 223.258 142.201C223.257 142.212 223.257 142.223 223.256 142.234C223.256 142.244 223.256 142.255 223.255 142.266C223.255 142.276 223.254 142.287 223.254 142.298C223.246 142.519 223.243 142.598 223.235 142.825C223.234 142.836 223.234 142.847 223.233 142.858C223.233 142.87 223.233 142.881 223.232 142.892C223.231 142.933 223.231 142.918 223.23 142.96C223.229 142.971 223.229 142.982 223.229 142.993C223.228 143.005 223.228 143.016 223.227 143.027C223.227 143.039 223.226 143.05 223.226 143.061C223.226 143.073 223.225 143.084 223.225 143.096C223.217 143.319 223.223 143.146 223.215 143.371C223.214 143.382 223.214 143.394 223.213 143.406C223.213 143.417 223.213 143.429 223.212 143.441C223.212 143.452 223.211 143.464 223.211 143.475C223.21 143.487 223.21 143.499 223.21 143.51C223.208 143.547 223.206 143.614 223.204 143.651C223.204 143.663 223.204 143.675 223.203 143.686C223.203 143.698 223.202 143.71 223.202 143.722C223.201 143.755 223.201 143.76 223.199 143.793C223.199 143.805 223.198 143.817 223.198 143.829C223.198 143.841 223.197 143.852 223.197 143.864C223.191 144.025 223.2 143.776 223.194 143.936C223.187 144.139 223.159 144.895 223.151 145.124L226.149 145.234L229.147 145.343C229.147 145.336 229.169 144.74 229.169 144.74C229.169 144.739 229.171 144.666 229.171 144.666C229.172 144.653 229.172 144.641 229.173 144.629C229.173 144.617 229.174 144.604 229.174 144.592C229.175 144.562 229.178 144.475 229.179 144.445C229.181 144.395 229.183 144.349 229.185 144.3C229.185 144.299 229.187 144.228 229.187 144.227C229.188 144.215 229.188 144.203 229.189 144.191C229.189 144.179 229.19 144.167 229.19 144.155C229.2 143.884 229.222 143.291 229.231 143.044C229.231 143.041 229.24 142.78 229.24 142.778C229.24 142.777 229.245 142.648 229.245 142.647C229.245 142.647 229.248 142.583 229.248 142.582C229.248 142.571 229.248 142.561 229.249 142.55C229.249 142.539 229.25 142.528 229.25 142.517C229.259 142.282 229.26 142.238 229.269 142.01C229.269 142.002 229.286 141.522 229.286 141.521C229.287 141.518 229.295 141.285 229.295 141.284C229.299 141.189 229.3 141.145 229.304 141.052C229.313 140.802 229.328 140.395 229.336 140.17C229.336 140.168 229.343 139.963 229.343 139.962C229.346 139.897 229.349 139.822 229.351 139.759C229.359 139.543 229.358 139.575 229.365 139.366C229.37 139.229 229.374 139.123 229.379 138.992C229.379 138.988 229.385 138.815 229.386 138.813C229.386 138.796 229.391 138.652 229.392 138.638C229.401 138.399 229.408 138.2 229.416 137.986C229.418 137.931 229.419 137.889 229.421 137.835C229.421 137.834 229.424 137.763 229.424 137.762C229.424 137.761 229.425 137.726 229.425 137.725C229.426 137.699 229.426 137.716 229.427 137.689C229.435 137.47 229.429 137.625 229.437 137.412C229.437 137.403 229.446 137.155 229.446 137.153C229.446 137.149 229.451 137.033 229.451 137.031C229.451 137.029 229.453 136.973 229.453 136.971C229.453 136.971 229.454 136.943 229.454 136.942C229.455 136.925 229.454 136.931 229.455 136.913C229.467 136.598 229.475 136.36 229.483 136.147C229.484 136.133 229.488 136.011 229.488 136.003C229.489 135.997 229.49 135.944 229.491 135.939C229.491 135.935 229.492 135.911 229.492 135.908C229.493 135.884 229.492 135.902 229.493 135.879C229.496 135.788 229.494 135.858 229.497 135.773C229.497 135.77 229.497 135.754 229.498 135.75C229.498 135.748 229.498 135.741 229.498 135.739C229.498 135.737 229.498 135.735 229.498 135.733C229.498 135.732 229.498 135.73 229.498 135.728C229.499 135.704 229.498 135.73 229.499 135.707C229.499 135.702 229.5 135.692 229.5 135.687C229.501 135.655 229.504 135.579 229.504 135.572C229.504 135.563 229.505 135.547 229.505 135.544C229.505 135.543 229.505 135.543 229.505 135.542C229.505 135.542 229.505 135.542 229.505 135.541C229.505 135.541 229.505 135.541 229.505 135.54C229.505 135.54 229.505 135.54 229.505 135.539C229.505 135.538 229.505 135.539 229.505 135.538C229.505 135.537 229.505 135.537 229.505 135.537C229.505 135.537 229.505 135.537 229.505 135.536C229.505 135.535 229.505 135.537 229.505 135.535C229.505 135.535 229.505 135.535 229.505 135.535C229.505 135.535 229.505 135.535 229.505 135.535C229.505 135.534 229.505 135.534 229.505 135.534C229.505 135.534 229.505 135.534 229.505 135.534C229.505 135.534 229.505 135.534 229.505 135.534C229.505 135.534 229.505 135.534 226.507 135.424ZM226.149 145.234H223.149C223.149 146.296 223.235 147.763 223.935 148.93L226.507 147.387L229.08 145.843C229.164 145.984 229.198 146.085 229.207 146.11C229.215 146.138 229.209 146.125 229.198 146.056C229.174 145.913 229.149 145.65 229.149 145.234H226.149ZM226.507 147.387L224.107 149.187C225.239 150.695 227.003 150.865 227.943 150.865V147.865V144.865C227.782 144.865 227.828 144.844 227.994 144.9C228.18 144.962 228.575 145.143 228.907 145.587L226.507 147.387ZM227.943 147.865V150.865C228.978 150.865 230.07 150.695 231.183 150.417L230.455 147.507L229.728 144.596C228.927 144.796 228.343 144.865 227.943 144.865V147.865ZM230.455 147.507L228.655 149.907L229.612 150.624L231.412 148.224L233.212 145.824L232.255 145.107L230.455 147.507ZM231.412 148.224L228.466 147.658L227.27 153.878L230.216 154.445L233.162 155.011L234.358 148.791L231.412 148.224ZM230.216 154.445L228.626 151.901C227.099 152.855 225.358 153.478 223.36 153.744L223.756 156.718L224.153 159.691C226.939 159.32 229.504 158.427 231.806 156.989L230.216 154.445ZM223.756 156.718L224.005 153.728C222.627 153.613 221.78 153.193 221.215 152.657C220.629 152.102 220.076 151.166 219.762 149.561L216.818 150.138L213.874 150.716C214.357 153.178 215.359 155.373 217.086 157.011C218.833 158.667 221.058 159.503 223.507 159.707L223.756 156.718ZM216.818 150.138V147.138H216.22V150.138V153.138H216.818V150.138ZM216.22 150.138L214.045 148.072C211.22 151.046 208.487 152.988 205.87 154.062L207.008 156.837L208.147 159.613C211.75 158.135 215.159 155.611 218.395 152.205L216.22 150.138ZM207.008 156.837L207.064 153.838C203.264 153.768 200.645 152.762 198.851 151.142L196.84 153.368L194.829 155.595C197.98 158.441 202.14 159.748 206.953 159.837L207.008 156.837ZM196.84 153.368L198.851 151.142C197.091 149.552 196.132 147.414 196.132 144.396H193.132H190.132C190.132 148.875 191.645 152.718 194.829 155.595L196.84 153.368ZM193.132 144.396H196.132C196.132 142.025 196.746 140.455 197.692 139.374C198.66 138.267 200.277 137.328 202.917 136.814L202.343 133.869L201.769 130.925C198.268 131.607 195.279 133.02 193.177 135.423C191.053 137.85 190.132 140.946 190.132 144.396H193.132ZM202.343 133.869L202.882 136.82L216.639 134.308L216.1 131.357L215.561 128.406L201.804 130.918L202.343 133.869ZM216.1 131.357H219.1V127.649H216.1H213.1V131.357H216.1ZM216.1 127.649H219.1C219.1 125.278 218.547 122.941 216.912 121.199C215.242 119.421 212.944 118.787 210.597 118.787V121.787V124.787C211.919 124.787 212.372 125.13 212.537 125.306C212.736 125.517 213.1 126.112 213.1 127.649H216.1ZM210.597 121.787V118.787C206.039 118.787 201.122 120.891 195.968 124.466L197.678 126.931L199.387 129.396C204.122 126.112 207.818 124.787 210.597 124.787V121.787ZM197.678 126.931L199.019 124.248L198.062 123.769L196.721 126.452L195.379 129.136L196.336 129.614L197.678 126.931ZM196.721 126.452L199.68 125.959L198.364 118.064L195.405 118.557L192.445 119.05L193.761 126.946L196.721 126.452ZM195.405 118.557L197.015 121.088C201.888 117.987 206.601 116.533 211.195 116.533V113.533V110.533C205.263 110.533 199.449 112.428 193.794 116.026L195.405 118.557ZM206.53 139.372L205.893 136.44C204.515 136.74 203.149 137.386 202.148 138.604C201.141 139.83 200.779 141.301 200.779 142.721H203.779H206.779C206.779 142.51 206.805 142.403 206.815 142.371C206.823 142.346 206.818 142.372 206.785 142.413C206.752 142.452 206.734 142.455 206.773 142.433C206.82 142.408 206.938 142.353 207.167 142.303L206.53 139.372ZM203.779 142.721H200.779C200.779 144.881 201.237 147.062 202.678 148.724C204.189 150.468 206.306 151.105 208.444 151.105V148.105V145.105C207.472 145.105 207.255 144.844 207.212 144.794C207.097 144.662 206.779 144.15 206.779 142.721H203.779ZM208.444 148.105V151.105C211.989 151.105 215.202 148.99 218.044 145.976L215.861 143.918L213.678 141.86C211.256 144.428 209.524 145.105 208.444 145.105V148.105ZM215.861 143.918L218.859 144.025L219.098 137.326L216.1 137.219L213.102 137.112L212.863 143.811L215.861 143.918ZM216.1 137.219L215.441 134.292L205.871 136.445L206.53 139.372L207.188 142.299L216.759 140.146L216.1 137.219ZM245.941 114.25L245.901 117.25L245.921 117.25H245.941V114.25ZM268.55 114.25H271.55V111.25H268.55V114.25ZM268.55 121.308L270.958 123.098L271.55 122.301V121.308H268.55ZM248.453 148.344L246.046 146.554L242.485 151.344H248.453V148.344ZM261.134 148.344V151.344H261.274L261.414 151.331L261.134 148.344ZM268.79 147.626L271.231 145.882L270.228 144.478L268.51 144.639L268.79 147.626ZM269.388 148.464L272.37 148.79L272.495 147.652L271.829 146.72L269.388 148.464ZM268.55 156.12L268.516 159.119L271.237 159.151L271.533 156.446L268.55 156.12ZM258.143 156L258.177 153L258.16 153H258.143V156ZM241.635 156V153H241.572L241.51 153.003L241.635 156ZM235.893 156.239H232.893V159.367L236.017 159.237L235.893 156.239ZM235.893 149.301L233.487 147.508L232.893 148.306V149.301H235.893ZM256.229 122.026L258.634 123.819L262.208 119.026H256.229V122.026ZM244.266 122.026V119.026H244.146L244.025 119.036L244.266 122.026ZM236.85 122.624L234.572 124.577L235.567 125.737L237.091 125.615L236.85 122.624ZM236.132 121.787L233.15 121.461L233.008 122.753L233.854 123.739L236.132 121.787ZM236.969 114.131L237.009 111.131L234.283 111.095L233.987 113.805L236.969 114.131ZM245.941 114.25V117.25H268.55V114.25V111.25H245.941V114.25ZM268.55 114.25H265.55V121.308H268.55H271.55V114.25H268.55ZM268.55 121.308L266.143 119.519L246.046 146.554L248.453 148.344L250.861 150.134L270.958 123.098L268.55 121.308ZM248.453 148.344V151.344H261.134V148.344V145.344H248.453V148.344ZM261.134 148.344L261.414 151.331L269.07 150.613L268.79 147.626L268.51 144.639L260.854 145.357L261.134 148.344ZM268.79 147.626L266.349 149.37L266.947 150.207L269.388 148.464L271.829 146.72L271.231 145.882L268.79 147.626ZM269.388 148.464L266.406 148.137L265.568 155.793L268.55 156.12L271.533 156.446L272.37 148.79L269.388 148.464ZM268.55 156.12L268.585 153.12L258.177 153L258.143 156L258.109 159L268.516 159.119L268.55 156.12ZM258.143 156V153H241.635V156V159H258.143V156ZM241.635 156L241.51 153.003L235.768 153.242L235.893 156.239L236.017 159.237L241.759 158.997L241.635 156ZM235.893 156.239H238.893V149.301H235.893H232.893V156.239H235.893ZM235.893 149.301L238.298 151.094L258.634 123.819L256.229 122.026L253.824 120.233L233.487 147.508L235.893 149.301ZM256.229 122.026V119.026H244.266V122.026V125.026H256.229V122.026ZM244.266 122.026L244.025 119.036L236.608 119.634L236.85 122.624L237.091 125.615L244.508 125.016L244.266 122.026ZM236.85 122.624L239.127 120.672L238.41 119.835L236.132 121.787L233.854 123.739L234.572 124.577L236.85 122.624ZM236.132 121.787L239.114 122.113L239.951 114.457L236.969 114.131L233.987 113.805L233.15 121.461L236.132 121.787ZM236.969 114.131L236.929 117.131L245.901 117.25L245.941 114.25L245.981 111.251L237.009 111.131L236.969 114.131ZM291.592 143.918L288.739 144.844L289.412 146.918H291.592V143.918ZM292.19 143.918V146.918H294.36L295.039 144.857L292.19 143.918ZM299.487 121.787L302.336 122.726L302.39 122.562L302.425 122.393L299.487 121.787ZM301.042 114.25V111.25H298.598L298.104 113.644L301.042 114.25ZM311.33 114.25L314.164 115.236L315.549 111.25H311.33V114.25ZM297.812 153.129L294.979 152.144L294.975 152.156L294.97 152.168L297.812 153.129ZM289.917 166.049L287.934 163.798L287.919 163.811L287.904 163.824L289.917 166.049ZM275.682 173.226L275.257 176.196L275.891 176.286L276.506 176.111L275.682 173.226ZM274.844 173.107L272.851 175.349L273.526 175.949L274.42 176.076L274.844 173.107ZM269.581 165.929L266.707 165.067L266.376 166.169L266.868 167.21L269.581 165.929ZM269.939 164.733L269.43 161.776L267.6 162.092L267.066 163.871L269.939 164.733ZM286.568 156L288.801 158.003L290.009 156.656L289.381 154.959L286.568 156ZM271.255 114.609L271.099 111.613L267.027 111.826L268.442 115.65L271.255 114.609ZM282.739 114.011L285.683 113.433L285.182 110.88L282.583 111.015L282.739 114.011ZM284.055 120.71L281.112 121.289L281.146 121.465L281.202 121.637L284.055 120.71ZM291.592 143.918V146.918H292.19V143.918V140.918H291.592V143.918ZM292.19 143.918L295.039 144.857L302.336 122.726L299.487 121.787L296.638 120.847L289.341 142.978L292.19 143.918ZM299.487 121.787L302.425 122.393L303.98 114.857L301.042 114.25L298.104 113.644L296.549 121.181L299.487 121.787ZM301.042 114.25V117.25H311.33V114.25V111.25H301.042V114.25ZM311.33 114.25L308.497 113.265L294.979 152.144L297.812 153.129L300.646 154.114L314.164 115.236L311.33 114.25ZM297.812 153.129L294.97 152.168C293.17 157.496 290.777 161.293 287.934 163.798L289.917 166.049L291.9 168.3C295.756 164.903 298.627 160.087 300.654 154.09L297.812 153.129ZM289.917 166.049L287.904 163.824C285.006 166.446 280.728 168.664 274.857 170.342L275.682 173.226L276.506 176.111C282.917 174.279 288.129 171.712 291.93 168.273L289.917 166.049ZM275.682 173.226L276.106 170.256L275.268 170.137L274.844 173.107L274.42 176.076L275.257 176.196L275.682 173.226ZM274.844 173.107L276.837 170.864C275.016 169.245 273.494 167.191 272.293 164.648L269.581 165.929L266.868 167.21C268.379 170.409 270.366 173.14 272.851 175.349L274.844 173.107ZM269.581 165.929L272.454 166.791L272.813 165.595L269.939 164.733L267.066 163.871L266.707 165.067L269.581 165.929ZM269.939 164.733L270.449 167.689C277.96 166.394 284.144 163.197 288.801 158.003L286.568 156L284.334 153.997C280.697 158.054 275.796 160.679 269.43 161.776L269.939 164.733ZM286.568 156L289.381 154.959L274.069 113.568L271.255 114.609L268.442 115.65L283.754 157.041L286.568 156ZM271.255 114.609L271.411 117.605L282.896 117.007L282.739 114.011L282.583 111.015L271.099 111.613L271.255 114.609ZM282.739 114.011L279.796 114.589L281.112 121.289L284.055 120.71L286.999 120.132L285.683 113.433L282.739 114.011ZM284.055 120.71L281.202 121.637L288.739 144.844L291.592 143.918L294.445 142.991L286.909 119.784L284.055 120.71Z" fill="#CE2021" mask="url(#path-41-outside-1_239_146)"/>
<defs>
<filter id="filter0_d_239_146" x="0" y="-4" width="334" height="246" filterUnits="userSpaceOnUse" color-interpolation-filters="sRGB">
<feFlood flood-opacity="0" result="BackgroundImageFix"/>
<feColorMatrix in="SourceAlpha" type="matrix" values="0 0 0 0 0 0 0 0 0 0 0 0 0 0 0 0 0 0 127 0" result="hardAlpha"/>
<feOffset dx="-3" dy="6"/>
<feGaussianBlur stdDeviation="5"/>
<feComposite in2="hardAlpha" operator="out"/>
<feColorMatrix type="matrix" values="0 0 0 0 1 0 0 0 0 1 0 0 0 0 1 0 0 0 0.35 0"/>
<feBlend mode="normal" in2="BackgroundImageFix" result="effect1_dropShadow_239_146"/>
<feBlend mode="normal" in="SourceGraphic" in2="effect1_dropShadow_239_146" result="shape"/>
</filter>
<filter id="filter1_d_239_146" x="147.938" y="97.2207" width="378.008" height="83.0054" filterUnits="userSpaceOnUse" color-interpolation-filters="sRGB">
<feFlood flood-opacity="0" result="BackgroundImageFix"/>
<feColorMatrix in="SourceAlpha" type="matrix" values="0 0 0 0 0 0 0 0 0 0 0 0 0 0 0 0 0 0 127 0" result="hardAlpha"/>
<feOffset dy="4"/>
<feGaussianBlur stdDeviation="2"/>
<feComposite in2="hardAlpha" operator="out"/>
<feColorMatrix type="matrix" values="0 0 0 0 0 0 0 0 0 0 0 0 0 0 0 0 0 0 0.44 0"/>
<feBlend mode="normal" in2="BackgroundImageFix" result="effect1_dropShadow_239_146"/>
<feBlend mode="normal" in="SourceGraphic" in2="effect1_dropShadow_239_146" result="shape"/>
</filter>
<clipPath id="clip0_239_146">
<rect width="314" height="226" fill="white" transform="translate(13)"/>
</clipPath>
</defs>
</svg>
