<svg width="153" height="123" viewBox="0 0 153 123" fill="none" xmlns="http://www.w3.org/2000/svg">
<g clip-path="url(#clip0_239_103)">
<path d="M77.9088 34.8395C80.418 32.429 87.6204 32.4661 90.8952 32.6403C92.379 32.7185 93.9852 33.024 95.487 33.1175C96.1348 33.1746 96.5045 33.2046 97.1425 33.3561C97.2863 34.2366 97.2536 34.1146 97.9996 34.5738C103.377 34.8909 108.744 35.3874 114.095 36.0607C117.027 36.4225 121.326 36.7037 123.936 38.0542C126.273 39.2643 129.27 44.128 130.954 46.3764C132.73 48.7461 134.58 51.3739 136.21 53.8386C137.884 53.8657 139.549 53.7144 140.488 55.5252C140.549 57.0324 140.748 57.978 139.983 59.2331C142.149 62.1527 144.618 65.0965 145.496 68.8372C145.623 69.3811 145.706 69.9747 145.843 70.4987L146.367 72.5112C147.799 75.6497 147.674 78.7419 146.714 82.0732C146.583 82.5374 146.431 82.9928 146.259 83.4393C145.124 86.3406 144.28 86.9453 141.505 87.2284C140.785 89.3753 140.248 90.6119 138.525 91.9578C141.673 92.0803 144.818 92.2773 147.959 92.5489C149.519 92.6694 151.77 92.9236 153.279 92.8692C151.231 93.6768 145.842 93.6953 143.565 93.928C135.64 94.7354 127.651 94.4773 119.684 94.571C101.79 94.8013 83.8951 94.7595 66.0018 94.4448C56.8726 94.2994 47.6773 94.1895 38.5667 93.4527C37.0505 93.3302 34.5841 93.386 33.1986 93.0931C33.4899 92.8584 41.7243 92.3634 42.8963 92.2992C41.1546 90.7681 40.4492 89.1876 40.0634 86.7613C36.4997 86.207 32.5189 86.0262 28.9137 85.7276C27.3215 85.5955 24.659 85.5819 23.219 85.3482L23.2612 85.2484C24.4106 85.0075 25.727 85.1468 26.8775 84.9537C30.3785 84.3652 34.1894 84.3165 37.6625 83.7269C37.9636 83.7502 37.8899 83.7372 38.1995 83.6548C37.8645 83.4403 37.526 83.4198 37.1408 83.3517C35.3491 83.0425 33.5456 82.8395 31.7353 82.7424C30.4945 82.6777 29.1502 82.7229 27.9335 82.5055C27.6872 82.4617 27.4504 82.1994 27.268 82.0073C26.3996 80.9638 26.7989 79.2792 27.0624 78.0566C27.9081 77.2959 38.568 77.183 40.3207 77.1355C39.2516 79.5375 39.1328 80.3367 38.9557 82.9738C39.9352 79.6942 40.6613 76.9862 43.5025 75.2497C43.9578 75.0433 44.2354 74.9513 44.7109 74.8074C45.3716 74.7119 45.9866 74.7127 46.6491 74.5852C49.9276 74.3041 51.39 76.7397 53.0393 79.3544C52.7162 78.4096 52.1889 77.4012 51.7517 76.5033C53.5109 76.2691 57.0528 76.2406 58.9714 76.1715C63.3019 76.017 67.9207 75.6708 72.2258 75.6524C72.1738 75.1818 72.1729 74.6627 72.1609 74.1855C71.6236 74.0792 70.9345 73.986 70.5006 73.6362C70.6579 72.863 70.6943 70.9181 70.7289 70.0421C70.787 68.4156 70.8733 66.7917 70.9883 65.1698C71.4079 59.2383 71.9731 53.5048 73.3017 47.7321C74.4437 42.7711 75.2411 39.0739 77.9088 34.8395ZM101.305 91.5541L126.115 91.679L127.343 91.7378C126.318 90.6254 125.72 89.9625 125.197 88.4545C117.805 88.5374 110.412 88.5049 103.021 88.3553C102.557 89.4749 102.071 90.6493 101.305 91.5541ZM79.5502 87.455C78.8593 89.5189 78.4823 90.1976 76.9991 91.6522L85.1574 91.6478L87.3878 91.6062C86.4062 90.099 85.9441 89.2857 85.4854 87.4904L79.5502 87.455ZM53.2397 92.1056C57.1253 91.9088 61.0054 91.9988 64.9516 91.7789L67.7925 91.76C66.302 90.5524 65.9427 89.7376 65.3824 87.8232C62.3971 87.8198 58.741 87.9347 55.8153 87.8041C55.2358 89.7096 54.8395 90.9312 53.2397 92.1056Z" fill="#03234D"/>
<path d="M102.188 70.3584C103.463 70.5058 107.534 72.1035 108.837 72.6568C109.584 74.2595 116.456 74.6629 118.092 75.2644C119.097 75.6339 119.917 76.8388 120.827 77.4742C121.27 77.7839 121.724 77.9987 122.235 78.1182C125.141 78.7974 136.783 78.8899 139.582 78.1022C140.947 77.7172 141.527 76.6661 142.205 75.3871C144.095 74.702 145.176 74.4009 146.367 72.5114C147.799 75.6499 147.674 78.7421 146.714 82.0734C146.583 82.5376 146.43 82.993 146.259 83.4394C144.351 84.2382 143.667 84.3536 141.668 84.7282C141.179 83.7863 141.024 83.4586 140.23 82.8149C136.559 82.5361 132.155 82.8722 128.368 82.7917C125.886 82.7401 122.417 82.6948 119.937 82.9457C119.499 82.9903 118.051 84.3888 117.596 84.7932L117.479 84.8129C116.337 85.0094 114.293 84.9339 113.085 84.9157L107.359 84.8239C105.807 84.7932 103.907 84.8153 102.387 84.4429C102.251 84.3472 102.064 83.9711 102.042 83.8114C101.324 78.64 98.9769 73.2221 93.9056 72.384C93.0007 72.2349 91.9625 72.3237 91.0249 72.3075C93.169 71.3835 96.8404 71.0339 98.9944 72.1709C102.011 73.764 103.414 77.0356 104.502 80.3851C104.477 79.6073 104.41 78.7743 104.36 77.9928C105.023 78.1593 105.358 78.1834 106.041 78.2361C105.161 74.521 104.58 74.4381 102.031 71.8455L103.81 71.2157C103.168 70.9183 102.793 70.7345 102.188 70.3584Z" fill="#CE2021"/>
<path d="M110.509 79.3125C112.356 79.7066 114.647 80.6106 116.241 81.7386L115.403 82.2938C114.193 82.8271 111.694 83.5007 110.744 82.1014C110.177 81.2655 110.383 80.2729 110.509 79.3125Z" fill="#03234D"/>
<path d="M144.89 80.1318C145.103 80.2693 145.029 80.2275 145.175 80.505C145.302 81.7473 143.437 82.4666 142.594 82.6364C142.313 82.4548 142.339 82.3758 142.341 82.0679C142.791 81.1131 144.043 80.5567 144.89 80.1318Z" fill="#03234D"/>
<path d="M108.837 72.6563L108.931 72.556C108.933 72.2945 106.336 69.0227 106.298 66.5388C106.292 66.1809 106.327 65.9162 106.555 65.6522C107.469 65.3546 110.509 66.5509 111.631 66.7934C113.517 67.2003 115.488 67.8657 117.342 68.4588C118.314 70.1213 119.244 72.169 120.094 73.9471C118.06 73.8841 116.046 73.4964 113.955 73.4145C116.461 74.2782 117.689 74.4386 120.241 74.6935C120.811 75.2772 121.835 76.4696 122.586 76.6241C125.278 77.1749 128.063 77.0211 130.791 77.1082C133.226 77.1857 135.675 77.0472 138.105 76.8356C139.469 76.7176 139.842 76.0548 140.641 74.9355C143.312 74.5579 144.706 73.1579 145.843 70.4984L146.367 72.511C145.176 74.4005 144.095 74.7016 142.205 75.3867C141.527 76.6657 140.947 77.7168 139.582 78.1018C136.783 78.8895 125.141 78.797 122.235 78.1178C121.724 77.9982 121.27 77.7835 120.827 77.4738C119.917 76.8383 119.097 75.6334 118.092 75.2639C116.456 74.6625 109.584 74.259 108.837 72.6563Z" fill="#FEFEFE"/>
<path d="M77.9089 34.8395C80.4181 32.429 87.6204 32.4661 90.8952 32.6403C92.379 32.7185 93.9852 33.024 95.487 33.1175C96.1348 33.1746 96.5045 33.2046 97.1425 33.3561C97.2863 34.2366 97.2536 34.1146 97.9996 34.5738C97.9705 34.5763 97.9418 34.579 97.9127 34.5812C96.6318 34.6809 95.2756 34.5055 93.9907 34.4422C90.4867 34.2673 80.7458 33.5384 78.4291 36.5773C75.1169 40.9236 73.2026 57.5709 72.8115 63.4368C72.6093 66.4645 72.7378 69.6074 72.4563 72.5907C74.6824 72.6182 76.9086 72.6635 79.1338 72.727C80.5221 72.77 82.3602 72.8005 83.7195 73.0588C80.9064 73.6753 75.0955 74.2495 72.161 74.1855C71.6236 74.0792 70.9345 73.986 70.5006 73.6362C70.6579 72.863 70.6943 70.9181 70.7289 70.0421C70.787 68.4156 70.8733 66.7917 70.9884 65.1698C71.4079 59.2383 71.9731 53.5048 73.3017 47.7321C74.4437 42.7711 75.2412 39.0739 77.9089 34.8395Z" fill="#FEFEFE"/>
<path d="M83.7318 81.5843C83.9224 79.3334 84.1314 77.9484 84.9117 75.8141C87.2394 69.4491 93.2811 66.7557 98.981 68.8117C99.9938 69.1773 101.181 69.873 102.188 70.3581C102.793 70.7342 103.168 70.918 103.81 71.2154L102.031 71.8451C104.58 74.4377 105.162 74.5206 106.041 78.2357C105.358 78.1831 105.023 78.159 104.36 77.9924C104.41 78.774 104.477 79.6069 104.502 80.3848C103.414 77.0353 102.011 73.7637 98.9944 72.1706C96.8405 71.0336 93.1691 71.3832 91.025 72.3071C86.4585 74.4279 85.1124 77.6913 84.4346 83.0067C83.0702 82.8711 81.4496 82.8399 80.0754 82.8699C74.5117 82.9926 68.8797 81.8775 63.3525 81.8291L62.7573 81.6778L62.7031 81.5346C69.7944 81.1626 76.6729 80.481 83.7318 81.5843Z" fill="#FEFEFE"/>
<path d="M61.2856 81.6045C61.8055 81.5413 62.1868 81.5386 62.703 81.5347L62.7572 81.6778L63.3524 81.8291L61.3355 81.8395L61.2856 81.6045Z" fill="#E3E8F3"/>
<path d="M61.3356 81.8397C61.0155 81.84 60.4871 81.8872 60.2383 81.7199C60.5317 81.5568 60.943 81.6035 61.2857 81.6048L61.3356 81.8397Z" fill="#8397B4"/>
<path d="M93.002 39.0367C92.7327 38.6113 92.4429 38.3159 92.4038 37.7919C92.4714 37.6168 92.4726 37.5348 92.6201 37.4249C93.7798 36.5651 109.362 38.0357 111.7 38.3065C114.948 38.6827 118.433 38.9425 121.592 39.8802C122.479 40.1442 123.165 40.536 123.855 41.2244C128.313 45.6666 131.616 51.4944 135.33 56.6862C137.368 59.5336 139.797 62.0788 141.433 65.2605C141.067 65.5582 140.485 66.0039 140.07 66.1515C138.374 66.7557 135.441 66.7245 133.65 66.7168C124.197 66.6765 114.551 66.1985 105.832 61.6598C103.97 60.6903 99.171 58.2889 97.7845 56.7718C95.5911 54.3708 94.1434 48.1468 92.961 44.9358C92.4454 43.5348 91.3866 39.8335 90.0987 39.4524C87.9343 38.8123 83.814 39.2694 81.8061 40.1626C81.7871 40.1978 81.7672 40.2325 81.7495 40.2684C80.6968 42.3771 78.8865 52.086 79.4918 54.3034C80.1163 56.5878 86.8903 57.0628 88.7899 57.5032C89.6473 57.7027 90.393 57.9622 91.1703 58.4146C88.7431 59.2362 86.7161 58.5841 84.2691 58.3511C83.5148 58.2795 83.3247 58.1976 82.8079 58.6936L82.9184 59.1708C81.8468 58.5418 80.6987 58.1337 79.6038 57.5688C78.9538 57.2335 78.0839 56.701 77.8464 55.8796C77.1123 53.3438 79.3091 42.2081 80.5374 39.788C81.0732 38.7336 82.1301 38.2101 83.1332 37.9147C85.177 37.3112 88.4833 36.8916 90.5262 37.634C91.4126 37.9567 92.2049 38.5051 93.002 39.0367Z" fill="#FEFEFE"/>
<path d="M94.4502 39.1243C100.806 38.8542 115.253 39.7764 120.998 42.0554C117.62 42.1943 115.454 41.9424 112.102 41.693C114.728 42.7338 123.301 44.0386 124.91 45.3018C126.969 46.9185 128.842 49.8691 130.448 52.0656C131.721 53.7716 132.831 55.5568 133.967 57.3785C127.877 57.4584 121.726 56.9927 115.646 56.5782C111.3 56.2825 106.863 56.1093 102.545 55.4739C101.191 55.2747 100.218 55.0009 99.353 53.7111C98.3967 52.287 93.9184 40.4694 94.1259 39.4492C94.1605 39.279 94.3294 39.215 94.4502 39.1243Z" fill="#03234D"/>
<path d="M91.1779 79.1538C91.5865 79.1927 93.1501 79.5115 93.1189 80.1221C92.7067 80.1548 92.0712 80.1393 91.7768 80.4308C91.7642 80.9553 92.513 81.8898 92.6675 82.8108C92.9573 84.5368 92.2447 85.6977 91.4539 87.0514C92.1125 87.7773 92.1908 87.5995 93.0035 88.0184L93.0311 88.1825L92.7281 88.5468C92.1161 88.9362 91.9396 88.9864 91.2863 89.1825C91.1657 89.1365 91.047 89.0878 90.9286 89.0356C87.4074 87.4787 87.6476 80.6874 91.1779 79.1538Z" fill="#FEFEFE"/>
<path d="M45.2448 80.02C45.7681 80.1583 46.7666 80.589 46.9547 81.1934C46.5441 81.0845 46.3027 81.0075 45.9128 81.1784C45.5979 81.776 46.6726 83.1966 46.6233 84.064C46.5576 85.2264 45.3926 86.462 45.6206 87.6022C46.1019 88.2394 46.284 87.7944 46.8657 88.0094C46.8186 88.2989 46.7381 88.3043 46.5239 88.5624C46.2262 88.7791 45.8697 88.9835 45.5551 89.1754C42.104 88.491 42.0006 82.9442 44.1891 80.7073C44.4951 80.3954 44.873 80.2102 45.2448 80.02Z" fill="#FEFEFE"/>
<path d="M143.449 67.4937L143.678 67.5716C144.397 68.5332 145.089 70.7775 144.569 71.9642C144.036 73.1802 142.71 73.6208 141.661 74.0422L140.549 74.3971C140.813 72.5339 140.942 71.332 140.981 69.439L143.449 67.4937Z" fill="#FEFEFE"/>
<path d="M78.9691 62.9812C78.4461 62.9231 77.5162 62.9558 77.4813 62.2006C77.9694 61.5199 78.8118 61.7617 79.4875 61.8557C79.9171 62.0173 79.8547 61.9172 80.1154 62.251C80.1717 63.0242 79.4884 63.0697 78.9691 62.9812Z" fill="#FEFEFE"/>
<path d="M79.4875 61.8555C79.9171 62.0171 79.8547 61.917 80.1154 62.2508C80.1717 63.024 79.4884 63.0695 78.9691 62.9809C79.075 62.6739 79.3391 62.164 79.4875 61.8555Z" fill="#E3E8F3"/>
<path d="M82.9183 59.1711L82.8079 58.6938C83.4621 59.1457 83.9905 59.5305 84.6169 60.0299C84.2237 59.8714 83.2433 59.4564 82.9183 59.1711Z" fill="#E3E8F3"/>
<path d="M47.5004 83.499L47.6472 83.6365C47.8293 84.1349 47.788 84.3025 47.7736 84.8599C47.5086 84.5153 47.5307 83.9652 47.5004 83.499Z" fill="#233A70"/>
<path d="M66.8806 22.3463C66.9642 22.0069 67.1707 21.3151 67.473 21.2266C69.3246 20.6858 74.5842 18.9602 76.153 18.8541C78.6855 18.6827 82.2164 18.815 84.7195 18.8559C88.2911 18.9139 93.4977 18.5151 96.8885 19.079C97.3331 20.9872 97.115 25.824 97.1544 28.0565C97.1743 29.2225 97.2028 32.2011 97.1425 33.3563C96.5045 33.2048 96.1348 33.1748 95.487 33.1177C93.9852 33.0242 92.379 32.7187 90.8952 32.6405C87.6204 32.4663 80.4181 32.4291 77.9089 34.8397C75.2412 39.0741 74.4437 42.7712 73.3017 47.7323C71.9731 53.505 71.4079 59.2385 70.9884 65.17C70.8733 66.7919 70.787 68.4158 70.7289 70.0423C70.6943 70.9183 70.6579 72.8632 70.5006 73.6364C64.8035 74.0627 59.0528 74.119 53.3481 74.4191C51.1063 74.537 48.8364 74.3906 46.6011 74.4698C46.024 74.4607 45.7587 74.4649 45.1779 74.5421C44.68 74.6054 44.2186 74.6666 43.7213 74.7564C40.3676 74.9741 37.0104 75.1399 33.6518 75.2531C31.9116 75.3252 30.1346 75.491 28.3996 75.3271C26.6744 75.164 27.2451 71.6229 27.4831 70.3267C35.538 70.1319 43.5588 69.4989 51.5965 69.0359C54.9426 68.8477 58.2872 68.6298 61.6303 68.3808C64.0085 68.2128 66.3274 68.1373 68.6784 67.6743C65.5165 67.2241 61.424 67.5179 58.1143 67.4979L37.3779 67.3309L31.8375 67.312C31.1459 67.3083 29.2044 67.3115 28.5835 67.1666C29.1796 66.7553 39.1087 66.125 40.3051 66.0305L56.2851 64.6298C60.8827 64.2342 65.2897 63.9467 69.8754 63.3297L70.3785 61.7612C67.4278 61.6687 63.2741 62.1683 60.1814 62.357C51.9466 62.9477 43.7069 63.4621 35.4642 63.8997C35.3798 62.0173 35.3847 60.3113 35.3966 58.4269L35.4238 56.7059C37.5343 55.7824 40.4988 54.8331 42.7381 53.9859C40.598 54.3244 37.6448 54.2481 35.3663 54.4688C33.0539 54.4818 30.5232 54.8525 28.1979 55.0786L17.4059 56.0683C15.9224 56.2004 12.681 56.5777 11.352 56.4931C14.9751 55.4006 18.5923 54.2784 22.2016 53.1244C25.0137 52.243 27.8971 51.3992 30.6906 50.4789C30.3054 50.1355 29.9244 49.7849 29.5483 49.4282C33.8149 48.2147 38.053 46.9992 42.1855 45.2743C36.7681 45.4917 30.9969 46.1127 25.5728 46.581C20.3148 47.0258 15.0513 47.3825 9.78347 47.6506C9.39271 47.6723 5.50223 47.9645 5.44592 47.9493L5.46551 47.8629C5.81098 47.6556 8.11179 47.2607 8.65097 47.1454L18.4916 45.0583L34.8403 41.3794C39.7485 40.2367 44.9514 38.9513 49.8719 37.976C49.8554 37.3445 49.8848 36.6913 49.9016 36.0581C52.7217 35.315 59.0204 33.9443 61.5431 32.6719C61.7187 32.6378 62.7441 32.2255 63.007 32.1305C64.4672 31.6053 65.5079 31.7809 66.9917 31.9234C67.0306 29.0882 66.9027 26.2597 66.9654 23.4182C66.9954 23.1252 66.9189 22.6578 66.8806 22.3463Z" fill="#03234D"/>
<path d="M61.5431 32.6719C61.7187 32.6377 62.7441 32.2254 63.007 32.1304C64.4672 31.6052 65.5079 31.7809 66.9917 31.9233C67.8855 32.0908 68.8681 32.0621 69.7794 32.0884C71.8378 32.1484 73.7613 32.079 75.8088 32.4215C75.2454 34.2657 75.3204 34.5887 75.4627 36.5422C73.7812 38.9451 72.6619 42.6496 72.1793 45.6459C72.1016 46.0602 72.0205 46.4737 71.9345 46.8865C71.2739 46.7524 69.4767 46.7943 68.6879 46.7844C67.7567 46.4904 66.4048 46.5608 65.4586 46.6068L65.6545 45.5037C62.7934 45.4349 59.7224 45.1136 56.8986 45.3342C56.3193 45.3793 54.7358 45.8469 54.1033 46.0093C52.7627 46.3399 51.42 46.6594 50.0751 46.9642C50.0063 45.3702 50.0035 44.335 50.065 42.7515L51.282 42.4118L51.289 40.5439C49.3936 40.9107 47.266 41.288 45.4918 42.1131C45.513 44.0578 45.6038 46.0012 45.7636 47.9377L40.146 49.0648C38.8991 49.313 36.7185 49.7421 35.5291 50.1942C35.2745 51.8528 35.3268 52.8023 35.3663 54.4687C33.0539 54.4818 30.5232 54.8525 28.1979 55.0786L17.4059 56.0682C15.9224 56.2003 12.681 56.5777 11.352 56.4931C14.9751 55.4006 18.5923 54.2783 22.2016 53.1243C25.0137 52.2429 27.8971 51.3991 30.6906 50.4788C30.3054 50.1354 29.9244 49.7849 29.5483 49.4282C33.8149 48.2147 38.053 46.9992 42.1855 45.2742C36.7681 45.4917 30.9969 46.1126 25.5728 46.581C20.3148 47.0257 15.0513 47.3824 9.78347 47.6506C9.39271 47.6722 5.50223 47.9645 5.44592 47.9492L5.46551 47.8629C5.81098 47.6555 8.11179 47.2607 8.65097 47.1453L18.4916 45.0582L34.8403 41.3793C39.7485 40.2366 44.9514 38.9513 49.8719 37.9759C49.8554 37.3444 49.8848 36.6913 49.9016 36.0581C52.7217 35.3149 59.0204 33.9442 61.5431 32.6719Z" fill="#CE2021"/>
<path d="M65.6545 45.5037C67.8956 45.5017 69.9385 45.4818 72.1793 45.6459C72.1016 46.0602 72.0205 46.4737 71.9345 46.8865C71.2738 46.7524 69.4767 46.7942 68.6878 46.7844C67.7567 46.4904 66.4048 46.5608 65.4586 46.6068L65.6545 45.5037Z" fill="#851C24"/>
<path d="M68.7811 33.2054C69.5489 33.1895 70.3466 33.2049 71.1168 33.2059C71.1324 34.7434 71.1597 36.2814 71.1982 37.8179L68.7267 37.8187C68.7245 36.2964 68.7615 34.7309 68.7811 33.2054Z" fill="#FEFEFE"/>
<path d="M84.5395 20.2582C85.2589 20.226 87.3115 20.2114 87.9988 20.3883C90.4428 20.5526 93.1717 20.4402 95.6715 20.516C95.7183 22.4611 95.8955 31.4067 95.5475 32.8089L95.4869 33.1176C93.9851 33.0241 92.3789 32.7186 90.8951 32.6403C87.6203 32.4662 80.418 32.429 77.9088 34.8396C77.3626 34.8745 77.1178 34.9682 76.6067 35.2047L76.5156 35.1921C76.1539 34.3218 76.3145 21.9735 76.3261 20.4614C78.7582 20.3982 81.7726 20.6788 84.1059 20.3374C84.1466 20.3204 84.4737 20.2695 84.5395 20.2582Z" fill="#FEFEFE"/>
<path d="M76.6068 35.2047C76.7742 34.7976 77.3183 33.8525 77.5955 33.5893C79.9566 31.3416 93.4029 30.3836 95.5476 32.809L95.487 33.1177C93.9852 33.0242 92.379 32.7187 90.8952 32.6404C87.6204 32.4663 80.418 32.4291 77.9088 34.8397C77.3626 34.8746 77.1178 34.9683 76.6068 35.2047Z" fill="#03234D"/>
<path d="M84.5396 20.2582C85.259 20.226 87.3116 20.2114 87.9989 20.3883C87.9827 21.3202 87.9753 22.2515 87.9771 23.1834C86.8728 23.1652 85.7687 23.1711 84.6641 23.2008C84.5643 22.3079 84.5628 21.1743 84.5396 20.2582Z" fill="#005AB9"/>
<path d="M84.664 23.2006C85.7687 23.1709 86.8728 23.165 87.9771 23.1832V25.6407C87.0013 25.6811 85.22 25.836 84.3366 25.5421C84.1233 25.2747 84.2063 25.4375 84.2078 24.9522C84.4159 24.1286 84.0686 23.948 84.664 23.2006Z" fill="#03234D"/>
<path d="M84.106 20.3375C84.1467 20.3205 84.4738 20.2696 84.5396 20.2583C84.5628 21.1744 84.5643 22.308 84.6641 23.201C84.0686 23.9483 84.4159 24.1289 84.2079 24.9525C84.165 24.0359 84.2862 20.9806 84.106 20.3375Z" fill="#233A70"/>
<path d="M65.4586 46.6065C66.4048 46.5605 67.7567 46.4902 68.6879 46.7841C69.4767 46.794 71.2739 46.7522 71.9345 46.8862C71.0636 50.6272 70.2078 56.2037 69.9134 60.0495C65.8577 60.2064 61.5868 60.985 57.5415 61.1323L57.5541 46.6825C60.1676 46.8203 62.7144 46.7913 65.3307 46.7881L65.4586 46.6065Z" fill="#FEFEFE"/>
<path d="M65.4586 46.6065C66.4048 46.5605 67.7567 46.4902 68.6879 46.7841C68.66 48.4577 68.7518 50.4564 68.7919 52.1526L65.3047 52.1519C65.2331 50.4117 65.2873 48.5266 65.3307 46.7881L65.4586 46.6065Z" fill="#CE2021"/>
<path d="M48.2471 43.0671C48.9879 42.9955 49.3386 42.933 50.065 42.7515C50.0035 44.335 50.0063 45.3701 50.0751 46.9642L48.3704 47.4144C48.2835 45.8429 48.2507 44.6385 48.2471 43.0671Z" fill="#EA302E"/>
<path d="M55.9998 26.5107C58.6436 25.4928 61.4077 24.6084 64.0412 23.4739C64.9595 23.0778 65.9889 22.7794 66.8806 22.3462C66.9188 22.6576 66.9953 23.125 66.9653 23.418C66.9026 26.2596 67.0305 29.0881 66.9916 31.9232C65.5078 31.7808 64.4671 31.6051 63.0069 32.1303C62.744 32.2253 61.7186 32.6376 61.543 32.6718L61.4803 32.5746C60.162 32.8856 58.8324 33.1434 57.5127 33.4546C50.7146 35.0614 43.709 35.7269 36.8066 36.5296L30.0559 37.2929C29.1814 37.3871 27.7181 37.596 26.8732 37.6149L26.5681 37.2228C29.6731 36.5497 33.272 35.5136 36.4201 34.7161L55.2969 29.9491C55.3948 29.0305 55.3018 28.4952 56.1087 28.1041C56.0298 27.6669 56.0197 26.9752 55.9998 26.5107Z" fill="#CE2021"/>
<path d="M55.9999 26.5107C58.6437 25.4928 61.4078 24.6084 64.0413 23.4739C64.9596 23.0778 65.9889 22.7794 66.8806 22.3462C66.9189 22.6576 66.9954 23.125 66.9654 23.418C66.9027 26.2596 67.0306 29.0881 66.9917 31.9232C65.5079 31.7808 64.4672 31.6051 63.007 32.1303C62.7441 32.2253 61.7187 32.6376 61.5431 32.6718L61.4803 32.5746C61.6606 32.4455 61.7147 32.3975 61.8803 32.2509C62.1765 31.382 62.0189 29.0044 61.9947 27.9476C62.6288 27.9963 63.1915 28.0138 63.8277 28.0241C64.5973 27.463 66.4452 26.862 66.6943 26.3228C66.6337 26.0962 66.6478 26.0067 66.3919 25.878C66.0131 25.6881 65.0437 25.8915 64.6248 25.9508C62.7261 26.2185 60.8968 26.5914 59.0437 27.1257C58.0336 27.418 57.0892 27.8091 56.1088 28.1041C56.0299 27.6669 56.0198 26.9752 55.9999 26.5107Z" fill="#FEFEFE"/>
<path d="M55.9999 26.5107C58.6437 25.4928 61.4078 24.6084 64.0413 23.4739C64.9596 23.0778 65.9889 22.7794 66.8806 22.3462C66.9189 22.6576 66.9954 23.125 66.9654 23.418C65.8944 23.6667 64.7047 24.465 63.7346 24.8237C62.2322 25.3791 57.3053 27.1626 55.9999 26.5107Z" fill="#EA302E"/>
<path d="M59.8698 28.4419L60.036 28.4756C59.6498 28.9794 57.0237 29.3519 56.3319 29.4776L56.1226 29.4389L56.2385 29.2965L56.2321 29.3922L56.3108 29.2618C57.0938 28.9585 59.0032 28.6173 59.8698 28.4419Z" fill="#FEE1E3"/>
<path d="M35.3966 58.4268C35.3846 60.3111 35.3797 62.0171 35.4642 63.8995C24.6321 64.1517 13.841 64.1805 3.0083 64.1298C1.91894 64.1246 0.807548 64.2803 -0.277222 64.2392C1.54929 63.7637 3.48444 63.5303 5.35012 63.2373L14.3741 61.7967L26.9198 59.671C29.7031 59.2066 32.5991 58.6828 35.3966 58.4268Z" fill="#CE2021"/>
<path d="M26.8732 37.6148C25.8863 37.7666 24.7713 37.9476 23.785 38.0283C24.077 37.7238 26.05 37.3366 26.5681 37.2227L26.8732 37.6148Z" fill="#EA302E"/>
<path d="M37.1408 83.3516C37.526 83.4197 37.8645 83.4401 38.1995 83.6546C37.8899 83.737 37.9636 83.7501 37.6625 83.7267C37.306 83.6502 37.0731 83.6817 36.6365 83.5705C36.8516 83.3737 36.8378 83.4217 37.1408 83.3516Z" fill="#FEFEFE" fill-opacity="0.0235294"/>
<path d="M43.7212 74.7563C44.2185 74.6665 44.6799 74.6052 45.1778 74.542L44.7108 74.8074C44.2353 74.9513 43.9578 75.0433 43.5024 75.2497C43.5395 74.9656 43.5551 74.9816 43.7212 74.7563Z" fill="#FEFEFE" fill-opacity="0.0196078"/>
<path d="M45.1779 74.5421C45.7587 74.4648 46.024 74.4607 46.6011 74.4698L46.6491 74.5854C45.9867 74.7128 45.3716 74.7121 44.7109 74.8075L45.1779 74.5421Z" fill="#8397B4" fill-opacity="0.560784"/>
</g>
<defs>
<clipPath id="clip0_239_103">
<rect width="153" height="123" fill="white"/>
</clipPath>
</defs>
</svg>
