<svg xmlns="http://www.w3.org/2000/svg" version="1.1" xmlns:xlink="http://www.w3.org/1999/xlink" width="1000" height="1000"><style>
    #light-icon {
      display: inline;
    }
    #dark-icon {
      display: none;
    }

    @media (prefers-color-scheme: dark) {
      #light-icon {
        display: none;
      }
      #dark-icon {
        display: inline;
      }
    }
  </style><g id="light-icon"><svg xmlns="http://www.w3.org/2000/svg" version="1.1" xmlns:xlink="http://www.w3.org/1999/xlink" width="1000" height="1000"><g clip-path="url(#SvgjsClipPath1289)"><rect width="1000" height="1000" fill="#ffffff"></rect><g transform="matrix(2,0,0,2,0,0)"><svg xmlns="http://www.w3.org/2000/svg" version="1.1" xmlns:xlink="http://www.w3.org/1999/xlink" width="500" height="500"><svg xmlns="http://www.w3.org/2000/svg" viewBox="0 0 500 500">
  <path fill="#03234D" d="M 254.604 141.624 C 262.804 131.825 286.341 131.976 297.043 132.684 C 301.892 133.002 307.141 134.244 312.049 134.624 C 314.166 134.856 315.374 134.978 317.459 135.594 C 317.929 139.173 317.822 138.677 320.26 140.544 C 337.832 141.833 355.372 143.851 372.859 146.588 C 382.441 148.059 396.491 149.202 405.021 154.692 C 412.657 159.611 422.451 179.382 427.955 188.522 C 433.758 198.155 439.803 208.837 445.131 218.856 C 450.601 218.966 456.044 218.351 459.111 225.712 C 459.31 231.839 459.962 235.683 457.46 240.785 C 464.539 252.653 472.608 264.62 475.476 279.826 C 475.891 282.037 476.162 284.45 476.611 286.58 L 478.325 294.761 C 483.002 307.519 482.595 320.089 479.457 333.631 C 479.028 335.518 478.531 337.369 477.97 339.184 C 474.26 350.978 471.502 353.436 462.434 354.587 C 460.083 363.314 458.327 368.341 452.695 373.812 C 462.982 374.31 473.261 375.111 483.526 376.215 C 488.625 376.705 495.979 377.738 500.913 377.517 C 494.22 380.8 476.608 380.875 469.167 381.821 C 443.268 385.103 417.159 384.054 391.123 384.435 C 332.647 385.371 274.167 385.201 215.692 383.922 C 185.858 383.331 155.808 382.884 126.035 379.889 C 121.08 379.391 113.02 379.618 108.492 378.427 C 109.444 377.473 136.354 375.461 140.184 375.2 C 134.492 368.976 132.187 362.551 130.926 352.688 C 119.28 350.435 106.271 349.7 94.489 348.486 C 89.286 347.949 80.585 347.894 75.879 346.944 L 76.017 346.538 C 79.773 345.559 84.075 346.125 87.835 345.34 C 99.276 342.948 111.73 342.75 123.08 340.353 C 124.064 340.448 123.823 340.395 124.835 340.06 C 123.74 339.188 122.634 339.105 121.375 338.828 C 115.52 337.571 109.626 336.746 103.71 336.351 C 99.655 336.088 95.262 336.272 91.286 335.388 C 90.481 335.21 89.707 334.144 89.111 333.363 C 86.273 329.121 87.578 322.273 88.439 317.303 C 91.203 314.211 126.039 313.752 131.767 313.559 C 128.273 323.323 127.885 326.572 127.306 337.292 C 130.507 323.96 132.88 312.952 142.165 305.893 C 143.653 305.054 144.56 304.68 146.114 304.095 C 148.273 303.707 150.283 303.71 152.448 303.192 C 163.162 302.049 167.941 311.95 173.331 322.579 C 172.275 318.738 170.552 314.639 169.123 310.989 C 174.872 310.037 186.447 309.921 192.717 309.64 C 206.869 309.012 221.963 307.605 236.032 307.53 C 235.862 305.617 235.859 303.507 235.82 301.567 C 234.064 301.135 231.812 300.756 230.394 299.334 C 230.908 296.191 231.027 288.285 231.14 284.724 C 231.33 278.112 231.612 271.511 231.988 264.918 C 233.359 240.806 235.206 217.499 239.548 194.033 C 243.28 173.866 245.886 158.837 254.604 141.624 Z M 331.061 372.171 L 412.141 372.679 L 416.152 372.918 C 412.805 368.396 410.848 365.701 409.14 359.571 C 384.984 359.908 360.824 359.776 336.671 359.168 C 335.153 363.719 333.566 368.493 331.061 372.171 Z M 259.968 355.508 C 257.71 363.898 256.478 366.657 251.631 372.57 L 278.292 372.552 L 285.581 372.383 C 282.373 366.256 280.863 362.95 279.364 355.652 L 259.968 355.508 Z M 173.986 374.413 C 186.684 373.613 199.364 373.979 212.26 373.085 L 221.544 373.008 C 216.673 368.099 215.499 364.787 213.668 357.005 C 203.912 356.991 191.964 357.458 182.403 356.927 C 180.509 364.673 179.214 369.639 173.986 374.413 Z" style="stroke-width: 1;"></path>
  <path fill="#CE2021" d="M 333.949 286.009 C 338.114 286.608 351.418 293.103 355.678 295.352 C 358.119 301.867 380.575 303.507 385.922 305.952 C 389.207 307.454 391.885 312.352 394.859 314.935 C 396.306 316.194 397.792 317.067 399.462 317.553 C 408.958 320.314 447.002 320.69 456.149 317.488 C 460.611 315.923 462.508 311.65 464.721 306.451 C 470.899 303.666 474.43 302.442 478.325 294.761 C 483.002 307.519 482.595 320.089 479.457 333.631 C 479.028 335.518 478.531 337.369 477.97 339.184 C 471.736 342.431 469.499 342.9 462.967 344.423 C 461.368 340.594 460.863 339.262 458.269 336.645 C 446.271 335.512 431.88 336.878 419.502 336.551 C 411.391 336.341 400.056 336.157 391.952 337.177 C 390.52 337.358 385.787 343.043 384.302 344.687 L 383.919 344.767 C 380.187 345.566 373.505 345.259 369.558 345.185 L 350.845 344.812 C 345.775 344.687 339.567 344.777 334.597 343.263 C 334.155 342.874 333.542 341.345 333.469 340.696 C 331.125 319.674 323.454 297.65 306.881 294.243 C 303.924 293.637 300.531 293.998 297.467 293.932 C 304.474 290.176 316.472 288.755 323.511 293.377 C 333.368 299.853 337.954 313.152 341.509 326.768 C 341.427 323.606 341.209 320.22 341.046 317.043 C 343.213 317.72 344.307 317.818 346.539 318.032 C 343.665 302.93 341.765 302.593 333.436 292.054 L 339.248 289.494 C 337.15 288.285 335.926 287.538 333.949 286.009 Z" style="stroke-width: 1;"></path>
  <path fill="#03234D" d="M 361.139 322.409 C 367.177 324.011 374.665 327.686 379.872 332.271 L 377.134 334.528 C 373.179 336.696 365.012 339.434 361.908 333.746 C 360.055 330.348 360.73 326.313 361.139 322.409 Z" style="stroke-width: 1;"></path>
  <path fill="#03234D" d="M 473.498 325.74 C 474.193 326.299 473.952 326.129 474.429 327.257 C 474.842 332.307 468.747 335.231 465.992 335.921 C 465.075 335.183 465.159 334.862 465.166 333.61 C 466.637 329.729 470.728 327.467 473.498 325.74 Z" style="stroke-width: 1;"></path>
  <path fill="#FEFEFE" d="M 355.678 295.352 L 355.984 294.944 C 355.989 293.881 347.502 280.581 347.378 270.484 C 347.359 269.029 347.474 267.953 348.218 266.88 C 351.206 265.67 361.139 270.533 364.808 271.519 C 370.969 273.173 377.411 275.878 383.469 278.289 C 386.646 285.047 389.686 293.371 392.463 300.599 C 385.818 300.343 379.235 298.767 372.402 298.434 C 380.593 301.945 384.605 302.597 392.944 303.633 C 394.807 306.006 398.154 310.853 400.607 311.481 C 409.406 313.72 418.506 313.095 427.42 313.449 C 435.378 313.764 443.383 313.201 451.323 312.341 C 455.782 311.861 457 309.167 459.611 304.617 C 468.341 303.082 472.896 297.391 476.611 286.58 L 478.325 294.761 C 474.43 302.442 470.899 303.666 464.721 306.451 C 462.508 311.65 460.611 315.923 456.149 317.488 C 447.002 320.69 408.958 320.314 399.462 317.553 C 397.792 317.067 396.306 316.194 394.859 314.935 C 391.885 312.352 389.207 307.454 385.922 305.952 C 380.575 303.507 358.119 301.867 355.678 295.352 Z" style="stroke-width: 1;"></path>
  <path fill="#FEFEFE" d="M 254.604 141.624 C 262.804 131.825 286.341 131.976 297.043 132.684 C 301.892 133.002 307.141 134.244 312.049 134.624 C 314.166 134.856 315.374 134.978 317.459 135.594 C 317.929 139.173 317.822 138.677 320.26 140.544 C 320.165 140.554 320.071 140.565 319.976 140.574 C 315.79 140.979 311.358 140.266 307.159 140.009 C 295.708 139.298 263.875 136.335 256.304 148.688 C 245.48 166.356 239.224 234.028 237.946 257.873 C 237.285 270.181 237.705 282.957 236.785 295.084 C 244.06 295.196 251.335 295.38 258.607 295.638 C 263.144 295.813 269.151 295.937 273.593 296.987 C 264.4 299.493 245.41 301.827 235.82 301.567 C 234.064 301.135 231.812 300.756 230.394 299.334 C 230.908 296.191 231.027 288.285 231.14 284.724 C 231.33 278.112 231.612 271.511 231.988 264.918 C 233.359 240.806 235.206 217.499 239.548 194.033 C 243.28 173.866 245.886 158.837 254.604 141.624 Z" style="stroke-width: 1;"></path>
  <path fill="#FEFEFE" d="M 273.633 331.644 C 274.256 322.494 274.939 316.864 277.489 308.188 C 285.096 282.314 304.84 271.365 323.467 279.723 C 326.777 281.209 330.658 284.037 333.949 286.009 C 335.926 287.538 337.15 288.285 339.248 289.494 L 333.436 292.054 C 341.765 302.593 343.665 302.93 346.539 318.032 C 344.307 317.818 343.213 317.72 341.046 317.043 C 341.209 320.22 341.427 323.606 341.509 326.768 C 337.954 313.152 333.368 299.853 323.511 293.377 C 316.472 288.755 304.474 290.176 297.467 293.932 C 282.544 302.553 278.145 315.819 275.93 337.426 C 271.471 336.875 266.175 336.748 261.684 336.87 C 243.502 337.369 225.097 332.836 207.034 332.639 L 205.089 332.024 L 204.912 331.442 C 228.086 329.93 250.565 327.159 273.633 331.644 Z" style="stroke-width: 1;"></path>
  <path fill="#E3E8F3" d="M 200.28 331.726 C 201.979 331.469 203.225 331.458 204.912 331.442 L 205.089 332.024 L 207.034 332.639 L 200.443 332.681 L 200.28 331.726 Z" style="stroke-width: 1;"></path>
  <path fill="#8397B4" d="M 200.443 332.681 C 199.397 332.682 197.67 332.874 196.857 332.194 C 197.816 331.531 199.16 331.721 200.28 331.726 L 200.443 332.681 Z" style="stroke-width: 1;"></path>
  <path fill="#FEFEFE" d="M 303.928 158.686 C 303.048 156.957 302.101 155.756 301.973 153.626 C 302.194 152.914 302.198 152.581 302.68 152.134 C 306.47 148.639 357.393 154.617 365.033 155.718 C 375.646 157.247 387.036 158.303 397.358 162.115 C 400.258 163.188 402.5 164.781 404.754 167.579 C 419.322 185.637 430.116 209.327 442.256 230.432 C 448.915 242.007 456.853 252.353 462.198 265.287 C 461.004 266.497 459.102 268.309 457.745 268.909 C 452.203 271.365 442.617 271.238 436.764 271.207 C 405.871 271.043 374.349 269.1 345.857 250.65 C 339.771 246.709 324.088 236.947 319.557 230.78 C 312.389 221.02 307.658 195.719 303.794 182.666 C 302.109 176.971 298.649 161.925 294.44 160.376 C 287.367 157.774 273.902 159.632 267.34 163.263 C 267.278 163.406 267.213 163.547 267.155 163.693 C 263.715 172.265 257.799 211.732 259.777 220.746 C 261.818 230.032 283.955 231.963 290.163 233.753 C 292.965 234.564 295.402 235.619 297.942 237.458 C 290.01 240.798 283.386 238.147 275.389 237.2 C 272.924 236.909 272.303 236.576 270.614 238.592 L 270.975 240.532 C 267.473 237.975 263.721 236.316 260.143 234.02 C 258.019 232.657 255.176 230.492 254.4 227.153 C 252.001 216.845 259.18 171.578 263.194 161.74 C 264.945 157.454 268.399 155.326 271.677 154.125 C 278.356 151.672 289.161 149.966 295.837 152.984 C 298.734 154.296 301.323 156.525 303.928 158.686 Z" style="stroke-width: 1;"></path>
  <path fill="#03234D" d="M 308.661 159.042 C 329.431 157.944 376.643 161.693 395.418 170.957 C 384.379 171.522 377.302 170.498 366.348 169.484 C 374.927 173.715 402.943 179.019 408.203 184.154 C 414.933 190.726 421.052 202.72 426.301 211.649 C 430.46 218.584 434.087 225.841 437.802 233.246 C 417.899 233.571 397.796 231.678 377.927 229.993 C 363.724 228.791 349.224 228.087 335.114 225.504 C 330.691 224.694 327.511 223.581 324.683 218.338 C 321.558 212.549 306.923 164.51 307.601 160.363 C 307.714 159.671 308.266 159.411 308.661 159.042 Z" style="stroke-width: 1;"></path>
  <path fill="#FEFEFE" d="M 297.967 321.763 C 299.302 321.921 304.412 323.217 304.31 325.699 C 302.963 325.832 300.886 325.769 299.924 326.954 C 299.883 329.086 302.33 332.885 302.835 336.629 C 303.782 343.645 301.453 348.364 298.869 353.867 C 301.021 356.818 301.277 356.095 303.933 357.798 L 304.023 358.465 L 303.033 359.946 C 301.033 361.529 300.456 361.733 298.321 362.53 C 297.927 362.343 297.539 362.145 297.152 361.933 C 285.645 355.604 286.43 327.997 297.967 321.763 Z" style="stroke-width: 1;"></path>
  <path fill="#FEFEFE" d="M 147.859 325.285 C 149.569 325.847 152.832 327.598 153.447 330.055 C 152.105 329.612 151.316 329.299 150.042 329.994 C 149.013 332.423 152.525 338.198 152.364 341.724 C 152.149 346.449 148.342 351.472 149.087 356.107 C 150.66 358.697 151.255 356.888 153.156 357.762 C 153.002 358.939 152.739 358.961 152.039 360.01 C 151.066 360.891 149.901 361.722 148.873 362.502 C 137.595 359.72 137.257 337.172 144.409 328.079 C 145.409 326.811 146.644 326.058 147.859 325.285 Z" style="stroke-width: 1;"></path>
  <path fill="#FEFEFE" d="M 468.787 274.364 L 469.535 274.681 C 471.886 278.59 474.146 287.713 472.447 292.537 C 470.705 297.48 466.373 299.271 462.945 300.984 L 459.31 302.427 C 460.173 294.853 460.596 289.967 460.723 282.272 L 468.787 274.364 Z" style="stroke-width: 1;"></path>
  <path fill="#FEFEFE" d="M 258.069 256.02 C 256.36 255.784 253.321 255.917 253.207 252.847 C 254.802 250.08 257.555 251.063 259.763 251.445 C 261.167 252.102 260.963 251.695 261.815 253.052 C 261.999 256.195 259.766 256.38 258.069 256.02 Z" style="stroke-width: 1;"></path>
  <path fill="#E3E8F3" d="M 259.763 251.445 C 261.167 252.102 260.963 251.695 261.815 253.052 C 261.999 256.195 259.766 256.38 258.069 256.02 C 258.415 254.772 259.278 252.699 259.763 251.445 Z" style="stroke-width: 1;"></path>
  <path fill="#E3E8F3" d="M 270.975 240.532 L 270.614 238.592 C 272.752 240.429 274.479 241.993 276.526 244.023 C 275.241 243.379 272.037 241.692 270.975 240.532 Z" style="stroke-width: 1;"></path>
  <path fill="#233A70" d="M 155.23 339.426 L 155.71 339.985 C 156.305 342.011 156.17 342.692 156.123 344.958 C 155.257 343.557 155.329 341.321 155.23 339.426 Z" style="stroke-width: 1;"></path>
  <path fill="#03234D" d="M 218.564 90.838 C 218.837 89.458 219.512 86.646 220.5 86.286 C 226.551 84.088 243.739 77.073 248.866 76.642 C 257.142 75.945 268.681 76.483 276.861 76.649 C 288.533 76.885 305.548 75.264 316.629 77.556 C 318.082 85.313 317.369 104.975 317.498 114.05 C 317.563 118.79 317.656 130.898 317.459 135.594 C 315.374 134.978 314.166 134.856 312.049 134.624 C 307.141 134.244 301.892 133.002 297.043 132.684 C 286.341 131.976 262.804 131.825 254.604 141.624 C 245.886 158.837 243.28 173.866 239.548 194.033 C 235.206 217.499 233.359 240.806 231.988 264.918 C 231.612 271.511 231.33 278.112 231.14 284.724 C 231.027 288.285 230.908 296.191 230.394 299.334 C 211.776 301.067 192.983 301.296 174.34 302.516 C 167.014 302.995 159.596 302.4 152.291 302.722 C 150.405 302.685 149.538 302.702 147.64 303.016 C 146.013 303.273 144.505 303.522 142.88 303.887 C 131.92 304.772 120.949 305.446 109.973 305.906 C 104.286 306.199 98.479 306.873 92.809 306.207 C 87.171 305.544 89.036 291.149 89.814 285.88 C 116.137 285.088 142.349 282.515 168.616 280.633 C 179.551 279.868 190.481 278.982 201.406 277.97 C 209.178 277.287 216.756 276.98 224.439 275.098 C 214.106 273.268 200.732 274.462 189.916 274.381 L 122.15 273.702 L 104.044 273.625 C 101.784 273.61 95.439 273.623 93.41 273.034 C 95.358 271.362 127.806 268.8 131.716 268.416 L 183.938 262.722 C 198.963 261.114 213.365 259.945 228.351 257.437 L 229.995 251.061 C 220.352 250.685 206.778 252.716 196.671 253.483 C 169.76 255.884 142.833 257.975 115.896 259.754 C 115.62 252.102 115.636 245.167 115.675 237.507 L 115.764 230.511 C 122.661 226.757 132.349 222.898 139.667 219.454 C 132.673 220.83 123.022 220.52 115.576 221.417 C 108.019 221.47 99.749 222.977 92.15 223.896 L 56.882 227.919 C 52.034 228.456 41.441 229.99 37.098 229.646 C 48.938 225.205 60.759 220.643 72.554 215.952 C 81.744 212.369 91.167 208.939 100.296 205.198 C 99.037 203.802 97.792 202.377 96.563 200.927 C 110.506 195.994 124.356 191.053 137.861 184.041 C 120.157 184.925 101.297 187.449 83.571 189.353 C 66.388 191.161 49.187 192.611 31.972 193.701 C 30.695 193.789 17.981 194.977 17.797 194.915 L 17.861 194.564 C 18.99 193.721 26.509 192.116 28.271 191.647 L 60.43 183.163 L 113.857 168.208 C 129.897 163.563 146.9 158.338 162.98 154.373 C 162.926 151.806 163.022 149.151 163.077 146.577 C 172.293 143.556 192.877 137.984 201.121 132.812 C 201.695 132.673 205.046 130.997 205.905 130.611 C 210.677 128.476 214.078 129.19 218.927 129.769 C 219.054 118.244 218.636 106.746 218.841 95.195 C 218.939 94.004 218.689 92.104 218.564 90.838 Z" style="stroke-width: 1;"></path>
  <path fill="#CE2021" d="M 201.121 132.812 C 201.695 132.673 205.046 130.997 205.905 130.611 C 210.677 128.476 214.078 129.19 218.927 129.769 C 221.848 130.45 225.059 130.333 228.037 130.44 C 234.764 130.684 241.05 130.402 247.741 131.794 C 245.9 139.291 246.145 140.604 246.61 148.545 C 241.115 158.313 237.457 173.372 235.88 185.552 C 235.626 187.236 235.361 188.917 235.08 190.595 C 232.921 190.05 227.048 190.22 224.47 190.18 C 221.427 188.985 217.009 189.271 213.917 189.458 L 214.557 184.974 C 205.207 184.694 195.171 183.388 185.943 184.285 C 184.05 184.468 178.875 186.369 176.808 187.029 C 172.427 188.373 168.039 189.672 163.644 190.911 C 163.419 184.431 163.41 180.223 163.611 173.786 L 167.588 172.405 L 167.611 164.812 C 161.417 166.303 154.464 167.837 148.666 171.191 C 148.735 179.096 149.032 186.996 149.554 194.868 L 131.196 199.45 C 127.121 200.459 119.995 202.203 116.108 204.041 C 115.276 210.783 115.447 214.643 115.576 221.417 C 108.019 221.47 99.749 222.977 92.15 223.896 L 56.882 227.919 C 52.034 228.456 41.441 229.99 37.098 229.646 C 48.938 225.205 60.759 220.643 72.554 215.952 C 81.744 212.369 91.167 208.939 100.296 205.198 C 99.037 203.802 97.792 202.377 96.563 200.927 C 110.506 195.994 124.356 191.053 137.861 184.041 C 120.157 184.925 101.297 187.449 83.571 189.353 C 66.388 191.161 49.187 192.611 31.972 193.701 C 30.695 193.789 17.981 194.977 17.797 194.915 L 17.861 194.564 C 18.99 193.721 26.509 192.116 28.271 191.647 L 60.43 183.163 L 113.857 168.208 C 129.897 163.563 146.9 158.338 162.98 154.373 C 162.926 151.806 163.022 149.151 163.077 146.577 C 172.293 143.556 192.877 137.984 201.121 132.812 Z" style="stroke-width: 1;"></path>
  <path fill="#851C24" d="M 214.557 184.974 C 221.881 184.966 228.557 184.885 235.88 185.552 C 235.626 187.236 235.361 188.917 235.08 190.595 C 232.921 190.05 227.048 190.22 224.47 190.18 C 221.427 188.985 217.009 189.271 213.917 189.458 L 214.557 184.974 Z" style="stroke-width: 1;"></path>
  <path fill="#FEFEFE" d="M 224.775 134.982 C 227.284 134.917 229.891 134.98 232.408 134.984 C 232.459 141.234 232.548 147.486 232.674 153.732 L 224.597 153.735 C 224.59 147.547 224.711 141.183 224.775 134.982 Z" style="stroke-width: 1;"></path>
  <path fill="#FEFEFE" d="M 276.273 82.35 C 278.624 82.219 285.332 82.16 287.578 82.879 C 295.565 83.547 304.483 83.09 312.652 83.398 C 312.805 91.305 313.384 127.669 312.247 133.369 L 312.049 134.624 C 307.141 134.244 301.892 133.002 297.043 132.684 C 286.341 131.976 262.804 131.825 254.604 141.624 C 252.819 141.766 252.019 142.147 250.349 143.108 L 250.051 143.057 C 248.869 139.519 249.394 89.323 249.432 83.176 C 257.38 82.919 267.231 84.06 274.856 82.672 C 274.989 82.603 276.058 82.396 276.273 82.35 Z" style="stroke-width: 1;"></path>
  <path d="M 250.349 143.108 C 250.896 141.453 252.674 137.611 253.58 136.541 C 261.296 127.404 305.238 123.51 312.247 133.369 L 312.049 134.624 C 307.141 134.244 301.892 133.002 297.043 132.684 C 286.341 131.976 262.804 131.825 254.604 141.624 C 252.819 141.766 252.019 142.147 250.349 143.108 Z" style="stroke-width: 1; fill: rgb(3, 35, 77);"></path>
  <path fill="#005AB9" d="M 276.273 82.35 C 278.624 82.219 285.332 82.16 287.578 82.879 C 287.525 86.667 287.501 90.453 287.507 94.241 C 283.898 94.167 280.29 94.191 276.68 94.312 C 276.354 90.682 276.349 86.074 276.273 82.35 Z" style="stroke-width: 1;"></path>
  <path fill="#03234D" d="M 276.68 94.312 C 280.29 94.191 283.898 94.167 287.507 94.241 L 287.507 104.231 C 284.318 104.395 278.497 105.025 275.61 103.83 C 274.913 102.743 275.184 103.405 275.189 101.432 C 275.869 98.084 274.734 97.35 276.68 94.312 Z" style="stroke-width: 1;"></path>
  <path fill="#233A70" d="M 274.856 82.672 C 274.989 82.603 276.058 82.396 276.273 82.35 C 276.349 86.074 276.354 90.682 276.68 94.312 C 274.734 97.35 275.869 98.084 275.189 101.432 C 275.049 97.706 275.445 85.286 274.856 82.672 Z" style="stroke-width: 1;"></path>
  <path fill="#FEFEFE" d="M 213.917 189.458 C 217.009 189.271 221.427 188.985 224.47 190.18 C 227.048 190.22 232.921 190.05 235.08 190.595 C 232.234 205.802 229.437 228.471 228.475 244.104 C 215.221 244.742 201.264 247.907 188.044 248.506 L 188.085 189.767 C 196.626 190.327 204.949 190.209 213.499 190.196 L 213.917 189.458 Z" style="stroke-width: 1;"></path>
  <path fill="#CE2021" d="M 213.917 189.458 C 217.009 189.271 221.427 188.985 224.47 190.18 C 224.379 196.983 224.679 205.108 224.81 212.003 L 213.414 212 C 213.18 204.926 213.357 197.263 213.499 190.196 L 213.917 189.458 Z" style="stroke-width: 1;"></path>
  <path fill="#EA302E" d="M 157.67 175.069 C 160.091 174.778 161.237 174.524 163.611 173.786 C 163.41 180.223 163.419 184.431 163.644 190.911 L 158.073 192.741 C 157.789 186.353 157.682 181.457 157.67 175.069 Z" style="stroke-width: 1;"></path>
  <path fill="#CE2021" d="M 183.006 107.767 C 191.646 103.629 200.679 100.034 209.285 95.422 C 212.286 93.812 215.65 92.599 218.564 90.838 C 218.689 92.104 218.939 94.004 218.841 95.195 C 218.636 106.746 219.054 118.244 218.927 129.769 C 214.078 129.19 210.677 128.476 205.905 130.611 C 205.046 130.997 201.695 132.673 201.121 132.812 L 200.916 132.417 C 196.608 133.681 192.263 134.729 187.95 135.994 C 165.734 142.526 142.84 145.231 120.283 148.494 L 98.222 151.597 C 95.364 151.98 90.582 152.829 87.821 152.906 L 86.824 151.312 C 96.971 148.576 108.732 144.364 119.02 141.122 L 180.709 121.744 C 181.029 118.01 180.725 115.834 183.362 114.244 C 183.104 112.467 183.071 109.655 183.006 107.767 Z" style="stroke-width: 1;"></path>
  <path fill="#FEFEFE" d="M 183.006 107.767 C 191.646 103.629 200.679 100.034 209.285 95.422 C 212.286 93.812 215.65 92.599 218.564 90.838 C 218.689 92.104 218.939 94.004 218.841 95.195 C 218.636 106.746 219.054 118.244 218.927 129.769 C 214.078 129.19 210.677 128.476 205.905 130.611 C 205.046 130.997 201.695 132.673 201.121 132.812 L 200.916 132.417 C 201.505 131.892 201.682 131.697 202.223 131.101 C 203.191 127.569 202.676 117.904 202.597 113.608 C 204.669 113.806 206.508 113.877 208.587 113.919 C 211.102 111.638 217.141 109.195 217.955 107.003 C 217.757 106.082 217.803 105.718 216.967 105.195 C 215.729 104.423 212.561 105.25 211.192 105.491 C 204.987 106.579 199.009 108.095 192.953 110.267 C 189.652 111.455 186.566 113.045 183.362 114.244 C 183.104 112.467 183.071 109.655 183.006 107.767 Z" style="stroke-width: 1;"></path>
  <path fill="#EA302E" d="M 183.006 107.767 C 191.646 103.629 200.679 100.034 209.285 95.422 C 212.286 93.812 215.65 92.599 218.564 90.838 C 218.689 92.104 218.939 94.004 218.841 95.195 C 215.341 96.206 211.453 99.451 208.283 100.909 C 203.373 103.167 187.272 110.417 183.006 107.767 Z" style="stroke-width: 1;"></path>
  <path fill="#FEE1E3" d="M 195.653 115.617 L 196.196 115.754 C 194.934 117.802 186.352 119.316 184.091 119.827 L 183.407 119.67 L 183.786 119.091 L 183.765 119.48 L 184.022 118.95 C 186.581 117.717 192.821 116.33 195.653 115.617 Z" style="stroke-width: 1;"></path>
  <path fill="#CE2021" d="M 115.675 237.507 C 115.636 245.167 115.62 252.102 115.896 259.754 C 80.497 260.779 45.232 260.896 9.831 260.69 C 6.271 260.669 2.639 261.302 -0.906 261.135 C 5.063 259.202 11.387 258.253 17.484 257.062 L 46.974 251.206 L 87.973 242.565 C 97.069 240.677 106.533 238.548 115.675 237.507 Z" style="stroke-width: 1;"></path>
  <path fill="#EA302E" d="M 87.821 152.906 C 84.596 153.523 80.952 154.259 77.729 154.587 C 78.683 153.349 85.131 151.775 86.824 151.312 L 87.821 152.906 Z" style="stroke-width: 1;"></path>
  <path fill="#FEFEFE" fill-opacity="0.023529412" d="M 121.375 338.828 C 122.634 339.105 123.74 339.188 124.835 340.06 C 123.823 340.395 124.064 340.448 123.08 340.353 C 121.915 340.042 121.154 340.17 119.727 339.718 C 120.43 338.918 120.385 339.113 121.375 338.828 Z" style="stroke-width: 1;"></path>
  <path fill="#FEFEFE" fill-opacity="0.019607844" d="M 142.88 303.887 C 144.505 303.522 146.013 303.273 147.64 303.016 L 146.114 304.095 C 144.56 304.68 143.653 305.054 142.165 305.893 C 142.286 304.738 142.337 304.803 142.88 303.887 Z" style="stroke-width: 1;"></path>
  <path fill="#8397B4" fill-opacity="0.56078434" d="M 147.64 303.016 C 149.538 302.702 150.405 302.685 152.291 302.722 L 152.448 303.192 C 150.283 303.71 148.273 303.707 146.114 304.095 L 147.64 303.016 Z" style="stroke-width: 1;"></path>
</svg></svg></g></g><defs><clipPath id="SvgjsClipPath1289"><rect width="1000" height="1000" x="0" y="0" rx="0" ry="0"></rect></clipPath></defs></svg></g><g id="dark-icon"><svg xmlns="http://www.w3.org/2000/svg" version="1.1" xmlns:xlink="http://www.w3.org/1999/xlink" width="1000" height="1000"><g clip-path="url(#SvgjsClipPath1290)"><rect width="1000" height="1000" fill="#ffffff"></rect><g transform="matrix(1.8,0,0,1.8,50,50)"><svg xmlns="http://www.w3.org/2000/svg" version="1.1" xmlns:xlink="http://www.w3.org/1999/xlink" width="500" height="500"><svg xmlns="http://www.w3.org/2000/svg" viewBox="0 0 500 500">
  <path fill="#03234D" d="M 254.604 141.624 C 262.804 131.825 286.341 131.976 297.043 132.684 C 301.892 133.002 307.141 134.244 312.049 134.624 C 314.166 134.856 315.374 134.978 317.459 135.594 C 317.929 139.173 317.822 138.677 320.26 140.544 C 337.832 141.833 355.372 143.851 372.859 146.588 C 382.441 148.059 396.491 149.202 405.021 154.692 C 412.657 159.611 422.451 179.382 427.955 188.522 C 433.758 198.155 439.803 208.837 445.131 218.856 C 450.601 218.966 456.044 218.351 459.111 225.712 C 459.31 231.839 459.962 235.683 457.46 240.785 C 464.539 252.653 472.608 264.62 475.476 279.826 C 475.891 282.037 476.162 284.45 476.611 286.58 L 478.325 294.761 C 483.002 307.519 482.595 320.089 479.457 333.631 C 479.028 335.518 478.531 337.369 477.97 339.184 C 474.26 350.978 471.502 353.436 462.434 354.587 C 460.083 363.314 458.327 368.341 452.695 373.812 C 462.982 374.31 473.261 375.111 483.526 376.215 C 488.625 376.705 495.979 377.738 500.913 377.517 C 494.22 380.8 476.608 380.875 469.167 381.821 C 443.268 385.103 417.159 384.054 391.123 384.435 C 332.647 385.371 274.167 385.201 215.692 383.922 C 185.858 383.331 155.808 382.884 126.035 379.889 C 121.08 379.391 113.02 379.618 108.492 378.427 C 109.444 377.473 136.354 375.461 140.184 375.2 C 134.492 368.976 132.187 362.551 130.926 352.688 C 119.28 350.435 106.271 349.7 94.489 348.486 C 89.286 347.949 80.585 347.894 75.879 346.944 L 76.017 346.538 C 79.773 345.559 84.075 346.125 87.835 345.34 C 99.276 342.948 111.73 342.75 123.08 340.353 C 124.064 340.448 123.823 340.395 124.835 340.06 C 123.74 339.188 122.634 339.105 121.375 338.828 C 115.52 337.571 109.626 336.746 103.71 336.351 C 99.655 336.088 95.262 336.272 91.286 335.388 C 90.481 335.21 89.707 334.144 89.111 333.363 C 86.273 329.121 87.578 322.273 88.439 317.303 C 91.203 314.211 126.039 313.752 131.767 313.559 C 128.273 323.323 127.885 326.572 127.306 337.292 C 130.507 323.96 132.88 312.952 142.165 305.893 C 143.653 305.054 144.56 304.68 146.114 304.095 C 148.273 303.707 150.283 303.71 152.448 303.192 C 163.162 302.049 167.941 311.95 173.331 322.579 C 172.275 318.738 170.552 314.639 169.123 310.989 C 174.872 310.037 186.447 309.921 192.717 309.64 C 206.869 309.012 221.963 307.605 236.032 307.53 C 235.862 305.617 235.859 303.507 235.82 301.567 C 234.064 301.135 231.812 300.756 230.394 299.334 C 230.908 296.191 231.027 288.285 231.14 284.724 C 231.33 278.112 231.612 271.511 231.988 264.918 C 233.359 240.806 235.206 217.499 239.548 194.033 C 243.28 173.866 245.886 158.837 254.604 141.624 Z M 331.061 372.171 L 412.141 372.679 L 416.152 372.918 C 412.805 368.396 410.848 365.701 409.14 359.571 C 384.984 359.908 360.824 359.776 336.671 359.168 C 335.153 363.719 333.566 368.493 331.061 372.171 Z M 259.968 355.508 C 257.71 363.898 256.478 366.657 251.631 372.57 L 278.292 372.552 L 285.581 372.383 C 282.373 366.256 280.863 362.95 279.364 355.652 L 259.968 355.508 Z M 173.986 374.413 C 186.684 373.613 199.364 373.979 212.26 373.085 L 221.544 373.008 C 216.673 368.099 215.499 364.787 213.668 357.005 C 203.912 356.991 191.964 357.458 182.403 356.927 C 180.509 364.673 179.214 369.639 173.986 374.413 Z" style="stroke-width: 1;"></path>
  <path fill="#CE2021" d="M 333.949 286.009 C 338.114 286.608 351.418 293.103 355.678 295.352 C 358.119 301.867 380.575 303.507 385.922 305.952 C 389.207 307.454 391.885 312.352 394.859 314.935 C 396.306 316.194 397.792 317.067 399.462 317.553 C 408.958 320.314 447.002 320.69 456.149 317.488 C 460.611 315.923 462.508 311.65 464.721 306.451 C 470.899 303.666 474.43 302.442 478.325 294.761 C 483.002 307.519 482.595 320.089 479.457 333.631 C 479.028 335.518 478.531 337.369 477.97 339.184 C 471.736 342.431 469.499 342.9 462.967 344.423 C 461.368 340.594 460.863 339.262 458.269 336.645 C 446.271 335.512 431.88 336.878 419.502 336.551 C 411.391 336.341 400.056 336.157 391.952 337.177 C 390.52 337.358 385.787 343.043 384.302 344.687 L 383.919 344.767 C 380.187 345.566 373.505 345.259 369.558 345.185 L 350.845 344.812 C 345.775 344.687 339.567 344.777 334.597 343.263 C 334.155 342.874 333.542 341.345 333.469 340.696 C 331.125 319.674 323.454 297.65 306.881 294.243 C 303.924 293.637 300.531 293.998 297.467 293.932 C 304.474 290.176 316.472 288.755 323.511 293.377 C 333.368 299.853 337.954 313.152 341.509 326.768 C 341.427 323.606 341.209 320.22 341.046 317.043 C 343.213 317.72 344.307 317.818 346.539 318.032 C 343.665 302.93 341.765 302.593 333.436 292.054 L 339.248 289.494 C 337.15 288.285 335.926 287.538 333.949 286.009 Z" style="stroke-width: 1;"></path>
  <path fill="#03234D" d="M 361.139 322.409 C 367.177 324.011 374.665 327.686 379.872 332.271 L 377.134 334.528 C 373.179 336.696 365.012 339.434 361.908 333.746 C 360.055 330.348 360.73 326.313 361.139 322.409 Z" style="stroke-width: 1;"></path>
  <path fill="#03234D" d="M 473.498 325.74 C 474.193 326.299 473.952 326.129 474.429 327.257 C 474.842 332.307 468.747 335.231 465.992 335.921 C 465.075 335.183 465.159 334.862 465.166 333.61 C 466.637 329.729 470.728 327.467 473.498 325.74 Z" style="stroke-width: 1;"></path>
  <path fill="#FEFEFE" d="M 355.678 295.352 L 355.984 294.944 C 355.989 293.881 347.502 280.581 347.378 270.484 C 347.359 269.029 347.474 267.953 348.218 266.88 C 351.206 265.67 361.139 270.533 364.808 271.519 C 370.969 273.173 377.411 275.878 383.469 278.289 C 386.646 285.047 389.686 293.371 392.463 300.599 C 385.818 300.343 379.235 298.767 372.402 298.434 C 380.593 301.945 384.605 302.597 392.944 303.633 C 394.807 306.006 398.154 310.853 400.607 311.481 C 409.406 313.72 418.506 313.095 427.42 313.449 C 435.378 313.764 443.383 313.201 451.323 312.341 C 455.782 311.861 457 309.167 459.611 304.617 C 468.341 303.082 472.896 297.391 476.611 286.58 L 478.325 294.761 C 474.43 302.442 470.899 303.666 464.721 306.451 C 462.508 311.65 460.611 315.923 456.149 317.488 C 447.002 320.69 408.958 320.314 399.462 317.553 C 397.792 317.067 396.306 316.194 394.859 314.935 C 391.885 312.352 389.207 307.454 385.922 305.952 C 380.575 303.507 358.119 301.867 355.678 295.352 Z" style="stroke-width: 1;"></path>
  <path fill="#FEFEFE" d="M 254.604 141.624 C 262.804 131.825 286.341 131.976 297.043 132.684 C 301.892 133.002 307.141 134.244 312.049 134.624 C 314.166 134.856 315.374 134.978 317.459 135.594 C 317.929 139.173 317.822 138.677 320.26 140.544 C 320.165 140.554 320.071 140.565 319.976 140.574 C 315.79 140.979 311.358 140.266 307.159 140.009 C 295.708 139.298 263.875 136.335 256.304 148.688 C 245.48 166.356 239.224 234.028 237.946 257.873 C 237.285 270.181 237.705 282.957 236.785 295.084 C 244.06 295.196 251.335 295.38 258.607 295.638 C 263.144 295.813 269.151 295.937 273.593 296.987 C 264.4 299.493 245.41 301.827 235.82 301.567 C 234.064 301.135 231.812 300.756 230.394 299.334 C 230.908 296.191 231.027 288.285 231.14 284.724 C 231.33 278.112 231.612 271.511 231.988 264.918 C 233.359 240.806 235.206 217.499 239.548 194.033 C 243.28 173.866 245.886 158.837 254.604 141.624 Z" style="stroke-width: 1;"></path>
  <path fill="#FEFEFE" d="M 273.633 331.644 C 274.256 322.494 274.939 316.864 277.489 308.188 C 285.096 282.314 304.84 271.365 323.467 279.723 C 326.777 281.209 330.658 284.037 333.949 286.009 C 335.926 287.538 337.15 288.285 339.248 289.494 L 333.436 292.054 C 341.765 302.593 343.665 302.93 346.539 318.032 C 344.307 317.818 343.213 317.72 341.046 317.043 C 341.209 320.22 341.427 323.606 341.509 326.768 C 337.954 313.152 333.368 299.853 323.511 293.377 C 316.472 288.755 304.474 290.176 297.467 293.932 C 282.544 302.553 278.145 315.819 275.93 337.426 C 271.471 336.875 266.175 336.748 261.684 336.87 C 243.502 337.369 225.097 332.836 207.034 332.639 L 205.089 332.024 L 204.912 331.442 C 228.086 329.93 250.565 327.159 273.633 331.644 Z" style="stroke-width: 1;"></path>
  <path fill="#E3E8F3" d="M 200.28 331.726 C 201.979 331.469 203.225 331.458 204.912 331.442 L 205.089 332.024 L 207.034 332.639 L 200.443 332.681 L 200.28 331.726 Z" style="stroke-width: 1;"></path>
  <path fill="#8397B4" d="M 200.443 332.681 C 199.397 332.682 197.67 332.874 196.857 332.194 C 197.816 331.531 199.16 331.721 200.28 331.726 L 200.443 332.681 Z" style="stroke-width: 1;"></path>
  <path fill="#FEFEFE" d="M 303.928 158.686 C 303.048 156.957 302.101 155.756 301.973 153.626 C 302.194 152.914 302.198 152.581 302.68 152.134 C 306.47 148.639 357.393 154.617 365.033 155.718 C 375.646 157.247 387.036 158.303 397.358 162.115 C 400.258 163.188 402.5 164.781 404.754 167.579 C 419.322 185.637 430.116 209.327 442.256 230.432 C 448.915 242.007 456.853 252.353 462.198 265.287 C 461.004 266.497 459.102 268.309 457.745 268.909 C 452.203 271.365 442.617 271.238 436.764 271.207 C 405.871 271.043 374.349 269.1 345.857 250.65 C 339.771 246.709 324.088 236.947 319.557 230.78 C 312.389 221.02 307.658 195.719 303.794 182.666 C 302.109 176.971 298.649 161.925 294.44 160.376 C 287.367 157.774 273.902 159.632 267.34 163.263 C 267.278 163.406 267.213 163.547 267.155 163.693 C 263.715 172.265 257.799 211.732 259.777 220.746 C 261.818 230.032 283.955 231.963 290.163 233.753 C 292.965 234.564 295.402 235.619 297.942 237.458 C 290.01 240.798 283.386 238.147 275.389 237.2 C 272.924 236.909 272.303 236.576 270.614 238.592 L 270.975 240.532 C 267.473 237.975 263.721 236.316 260.143 234.02 C 258.019 232.657 255.176 230.492 254.4 227.153 C 252.001 216.845 259.18 171.578 263.194 161.74 C 264.945 157.454 268.399 155.326 271.677 154.125 C 278.356 151.672 289.161 149.966 295.837 152.984 C 298.734 154.296 301.323 156.525 303.928 158.686 Z" style="stroke-width: 1;"></path>
  <path fill="#03234D" d="M 308.661 159.042 C 329.431 157.944 376.643 161.693 395.418 170.957 C 384.379 171.522 377.302 170.498 366.348 169.484 C 374.927 173.715 402.943 179.019 408.203 184.154 C 414.933 190.726 421.052 202.72 426.301 211.649 C 430.46 218.584 434.087 225.841 437.802 233.246 C 417.899 233.571 397.796 231.678 377.927 229.993 C 363.724 228.791 349.224 228.087 335.114 225.504 C 330.691 224.694 327.511 223.581 324.683 218.338 C 321.558 212.549 306.923 164.51 307.601 160.363 C 307.714 159.671 308.266 159.411 308.661 159.042 Z" style="stroke-width: 1;"></path>
  <path fill="#FEFEFE" d="M 297.967 321.763 C 299.302 321.921 304.412 323.217 304.31 325.699 C 302.963 325.832 300.886 325.769 299.924 326.954 C 299.883 329.086 302.33 332.885 302.835 336.629 C 303.782 343.645 301.453 348.364 298.869 353.867 C 301.021 356.818 301.277 356.095 303.933 357.798 L 304.023 358.465 L 303.033 359.946 C 301.033 361.529 300.456 361.733 298.321 362.53 C 297.927 362.343 297.539 362.145 297.152 361.933 C 285.645 355.604 286.43 327.997 297.967 321.763 Z" style="stroke-width: 1;"></path>
  <path fill="#FEFEFE" d="M 147.859 325.285 C 149.569 325.847 152.832 327.598 153.447 330.055 C 152.105 329.612 151.316 329.299 150.042 329.994 C 149.013 332.423 152.525 338.198 152.364 341.724 C 152.149 346.449 148.342 351.472 149.087 356.107 C 150.66 358.697 151.255 356.888 153.156 357.762 C 153.002 358.939 152.739 358.961 152.039 360.01 C 151.066 360.891 149.901 361.722 148.873 362.502 C 137.595 359.72 137.257 337.172 144.409 328.079 C 145.409 326.811 146.644 326.058 147.859 325.285 Z" style="stroke-width: 1;"></path>
  <path fill="#FEFEFE" d="M 468.787 274.364 L 469.535 274.681 C 471.886 278.59 474.146 287.713 472.447 292.537 C 470.705 297.48 466.373 299.271 462.945 300.984 L 459.31 302.427 C 460.173 294.853 460.596 289.967 460.723 282.272 L 468.787 274.364 Z" style="stroke-width: 1;"></path>
  <path fill="#FEFEFE" d="M 258.069 256.02 C 256.36 255.784 253.321 255.917 253.207 252.847 C 254.802 250.08 257.555 251.063 259.763 251.445 C 261.167 252.102 260.963 251.695 261.815 253.052 C 261.999 256.195 259.766 256.38 258.069 256.02 Z" style="stroke-width: 1;"></path>
  <path fill="#E3E8F3" d="M 259.763 251.445 C 261.167 252.102 260.963 251.695 261.815 253.052 C 261.999 256.195 259.766 256.38 258.069 256.02 C 258.415 254.772 259.278 252.699 259.763 251.445 Z" style="stroke-width: 1;"></path>
  <path fill="#E3E8F3" d="M 270.975 240.532 L 270.614 238.592 C 272.752 240.429 274.479 241.993 276.526 244.023 C 275.241 243.379 272.037 241.692 270.975 240.532 Z" style="stroke-width: 1;"></path>
  <path fill="#233A70" d="M 155.23 339.426 L 155.71 339.985 C 156.305 342.011 156.17 342.692 156.123 344.958 C 155.257 343.557 155.329 341.321 155.23 339.426 Z" style="stroke-width: 1;"></path>
  <path fill="#03234D" d="M 218.564 90.838 C 218.837 89.458 219.512 86.646 220.5 86.286 C 226.551 84.088 243.739 77.073 248.866 76.642 C 257.142 75.945 268.681 76.483 276.861 76.649 C 288.533 76.885 305.548 75.264 316.629 77.556 C 318.082 85.313 317.369 104.975 317.498 114.05 C 317.563 118.79 317.656 130.898 317.459 135.594 C 315.374 134.978 314.166 134.856 312.049 134.624 C 307.141 134.244 301.892 133.002 297.043 132.684 C 286.341 131.976 262.804 131.825 254.604 141.624 C 245.886 158.837 243.28 173.866 239.548 194.033 C 235.206 217.499 233.359 240.806 231.988 264.918 C 231.612 271.511 231.33 278.112 231.14 284.724 C 231.027 288.285 230.908 296.191 230.394 299.334 C 211.776 301.067 192.983 301.296 174.34 302.516 C 167.014 302.995 159.596 302.4 152.291 302.722 C 150.405 302.685 149.538 302.702 147.64 303.016 C 146.013 303.273 144.505 303.522 142.88 303.887 C 131.92 304.772 120.949 305.446 109.973 305.906 C 104.286 306.199 98.479 306.873 92.809 306.207 C 87.171 305.544 89.036 291.149 89.814 285.88 C 116.137 285.088 142.349 282.515 168.616 280.633 C 179.551 279.868 190.481 278.982 201.406 277.97 C 209.178 277.287 216.756 276.98 224.439 275.098 C 214.106 273.268 200.732 274.462 189.916 274.381 L 122.15 273.702 L 104.044 273.625 C 101.784 273.61 95.439 273.623 93.41 273.034 C 95.358 271.362 127.806 268.8 131.716 268.416 L 183.938 262.722 C 198.963 261.114 213.365 259.945 228.351 257.437 L 229.995 251.061 C 220.352 250.685 206.778 252.716 196.671 253.483 C 169.76 255.884 142.833 257.975 115.896 259.754 C 115.62 252.102 115.636 245.167 115.675 237.507 L 115.764 230.511 C 122.661 226.757 132.349 222.898 139.667 219.454 C 132.673 220.83 123.022 220.52 115.576 221.417 C 108.019 221.47 99.749 222.977 92.15 223.896 L 56.882 227.919 C 52.034 228.456 41.441 229.99 37.098 229.646 C 48.938 225.205 60.759 220.643 72.554 215.952 C 81.744 212.369 91.167 208.939 100.296 205.198 C 99.037 203.802 97.792 202.377 96.563 200.927 C 110.506 195.994 124.356 191.053 137.861 184.041 C 120.157 184.925 101.297 187.449 83.571 189.353 C 66.388 191.161 49.187 192.611 31.972 193.701 C 30.695 193.789 17.981 194.977 17.797 194.915 L 17.861 194.564 C 18.99 193.721 26.509 192.116 28.271 191.647 L 60.43 183.163 L 113.857 168.208 C 129.897 163.563 146.9 158.338 162.98 154.373 C 162.926 151.806 163.022 149.151 163.077 146.577 C 172.293 143.556 192.877 137.984 201.121 132.812 C 201.695 132.673 205.046 130.997 205.905 130.611 C 210.677 128.476 214.078 129.19 218.927 129.769 C 219.054 118.244 218.636 106.746 218.841 95.195 C 218.939 94.004 218.689 92.104 218.564 90.838 Z" style="stroke-width: 1;"></path>
  <path fill="#CE2021" d="M 201.121 132.812 C 201.695 132.673 205.046 130.997 205.905 130.611 C 210.677 128.476 214.078 129.19 218.927 129.769 C 221.848 130.45 225.059 130.333 228.037 130.44 C 234.764 130.684 241.05 130.402 247.741 131.794 C 245.9 139.291 246.145 140.604 246.61 148.545 C 241.115 158.313 237.457 173.372 235.88 185.552 C 235.626 187.236 235.361 188.917 235.08 190.595 C 232.921 190.05 227.048 190.22 224.47 190.18 C 221.427 188.985 217.009 189.271 213.917 189.458 L 214.557 184.974 C 205.207 184.694 195.171 183.388 185.943 184.285 C 184.05 184.468 178.875 186.369 176.808 187.029 C 172.427 188.373 168.039 189.672 163.644 190.911 C 163.419 184.431 163.41 180.223 163.611 173.786 L 167.588 172.405 L 167.611 164.812 C 161.417 166.303 154.464 167.837 148.666 171.191 C 148.735 179.096 149.032 186.996 149.554 194.868 L 131.196 199.45 C 127.121 200.459 119.995 202.203 116.108 204.041 C 115.276 210.783 115.447 214.643 115.576 221.417 C 108.019 221.47 99.749 222.977 92.15 223.896 L 56.882 227.919 C 52.034 228.456 41.441 229.99 37.098 229.646 C 48.938 225.205 60.759 220.643 72.554 215.952 C 81.744 212.369 91.167 208.939 100.296 205.198 C 99.037 203.802 97.792 202.377 96.563 200.927 C 110.506 195.994 124.356 191.053 137.861 184.041 C 120.157 184.925 101.297 187.449 83.571 189.353 C 66.388 191.161 49.187 192.611 31.972 193.701 C 30.695 193.789 17.981 194.977 17.797 194.915 L 17.861 194.564 C 18.99 193.721 26.509 192.116 28.271 191.647 L 60.43 183.163 L 113.857 168.208 C 129.897 163.563 146.9 158.338 162.98 154.373 C 162.926 151.806 163.022 149.151 163.077 146.577 C 172.293 143.556 192.877 137.984 201.121 132.812 Z" style="stroke-width: 1;"></path>
  <path fill="#851C24" d="M 214.557 184.974 C 221.881 184.966 228.557 184.885 235.88 185.552 C 235.626 187.236 235.361 188.917 235.08 190.595 C 232.921 190.05 227.048 190.22 224.47 190.18 C 221.427 188.985 217.009 189.271 213.917 189.458 L 214.557 184.974 Z" style="stroke-width: 1;"></path>
  <path fill="#FEFEFE" d="M 224.775 134.982 C 227.284 134.917 229.891 134.98 232.408 134.984 C 232.459 141.234 232.548 147.486 232.674 153.732 L 224.597 153.735 C 224.59 147.547 224.711 141.183 224.775 134.982 Z" style="stroke-width: 1;"></path>
  <path fill="#FEFEFE" d="M 276.273 82.35 C 278.624 82.219 285.332 82.16 287.578 82.879 C 295.565 83.547 304.483 83.09 312.652 83.398 C 312.805 91.305 313.384 127.669 312.247 133.369 L 312.049 134.624 C 307.141 134.244 301.892 133.002 297.043 132.684 C 286.341 131.976 262.804 131.825 254.604 141.624 C 252.819 141.766 252.019 142.147 250.349 143.108 L 250.051 143.057 C 248.869 139.519 249.394 89.323 249.432 83.176 C 257.38 82.919 267.231 84.06 274.856 82.672 C 274.989 82.603 276.058 82.396 276.273 82.35 Z" style="stroke-width: 1;"></path>
  <path d="M 250.349 143.108 C 250.896 141.453 252.674 137.611 253.58 136.541 C 261.296 127.404 305.238 123.51 312.247 133.369 L 312.049 134.624 C 307.141 134.244 301.892 133.002 297.043 132.684 C 286.341 131.976 262.804 131.825 254.604 141.624 C 252.819 141.766 252.019 142.147 250.349 143.108 Z" style="stroke-width: 1; fill: rgb(3, 35, 77);"></path>
  <path fill="#005AB9" d="M 276.273 82.35 C 278.624 82.219 285.332 82.16 287.578 82.879 C 287.525 86.667 287.501 90.453 287.507 94.241 C 283.898 94.167 280.29 94.191 276.68 94.312 C 276.354 90.682 276.349 86.074 276.273 82.35 Z" style="stroke-width: 1;"></path>
  <path fill="#03234D" d="M 276.68 94.312 C 280.29 94.191 283.898 94.167 287.507 94.241 L 287.507 104.231 C 284.318 104.395 278.497 105.025 275.61 103.83 C 274.913 102.743 275.184 103.405 275.189 101.432 C 275.869 98.084 274.734 97.35 276.68 94.312 Z" style="stroke-width: 1;"></path>
  <path fill="#233A70" d="M 274.856 82.672 C 274.989 82.603 276.058 82.396 276.273 82.35 C 276.349 86.074 276.354 90.682 276.68 94.312 C 274.734 97.35 275.869 98.084 275.189 101.432 C 275.049 97.706 275.445 85.286 274.856 82.672 Z" style="stroke-width: 1;"></path>
  <path fill="#FEFEFE" d="M 213.917 189.458 C 217.009 189.271 221.427 188.985 224.47 190.18 C 227.048 190.22 232.921 190.05 235.08 190.595 C 232.234 205.802 229.437 228.471 228.475 244.104 C 215.221 244.742 201.264 247.907 188.044 248.506 L 188.085 189.767 C 196.626 190.327 204.949 190.209 213.499 190.196 L 213.917 189.458 Z" style="stroke-width: 1;"></path>
  <path fill="#CE2021" d="M 213.917 189.458 C 217.009 189.271 221.427 188.985 224.47 190.18 C 224.379 196.983 224.679 205.108 224.81 212.003 L 213.414 212 C 213.18 204.926 213.357 197.263 213.499 190.196 L 213.917 189.458 Z" style="stroke-width: 1;"></path>
  <path fill="#EA302E" d="M 157.67 175.069 C 160.091 174.778 161.237 174.524 163.611 173.786 C 163.41 180.223 163.419 184.431 163.644 190.911 L 158.073 192.741 C 157.789 186.353 157.682 181.457 157.67 175.069 Z" style="stroke-width: 1;"></path>
  <path fill="#CE2021" d="M 183.006 107.767 C 191.646 103.629 200.679 100.034 209.285 95.422 C 212.286 93.812 215.65 92.599 218.564 90.838 C 218.689 92.104 218.939 94.004 218.841 95.195 C 218.636 106.746 219.054 118.244 218.927 129.769 C 214.078 129.19 210.677 128.476 205.905 130.611 C 205.046 130.997 201.695 132.673 201.121 132.812 L 200.916 132.417 C 196.608 133.681 192.263 134.729 187.95 135.994 C 165.734 142.526 142.84 145.231 120.283 148.494 L 98.222 151.597 C 95.364 151.98 90.582 152.829 87.821 152.906 L 86.824 151.312 C 96.971 148.576 108.732 144.364 119.02 141.122 L 180.709 121.744 C 181.029 118.01 180.725 115.834 183.362 114.244 C 183.104 112.467 183.071 109.655 183.006 107.767 Z" style="stroke-width: 1;"></path>
  <path fill="#FEFEFE" d="M 183.006 107.767 C 191.646 103.629 200.679 100.034 209.285 95.422 C 212.286 93.812 215.65 92.599 218.564 90.838 C 218.689 92.104 218.939 94.004 218.841 95.195 C 218.636 106.746 219.054 118.244 218.927 129.769 C 214.078 129.19 210.677 128.476 205.905 130.611 C 205.046 130.997 201.695 132.673 201.121 132.812 L 200.916 132.417 C 201.505 131.892 201.682 131.697 202.223 131.101 C 203.191 127.569 202.676 117.904 202.597 113.608 C 204.669 113.806 206.508 113.877 208.587 113.919 C 211.102 111.638 217.141 109.195 217.955 107.003 C 217.757 106.082 217.803 105.718 216.967 105.195 C 215.729 104.423 212.561 105.25 211.192 105.491 C 204.987 106.579 199.009 108.095 192.953 110.267 C 189.652 111.455 186.566 113.045 183.362 114.244 C 183.104 112.467 183.071 109.655 183.006 107.767 Z" style="stroke-width: 1;"></path>
  <path fill="#EA302E" d="M 183.006 107.767 C 191.646 103.629 200.679 100.034 209.285 95.422 C 212.286 93.812 215.65 92.599 218.564 90.838 C 218.689 92.104 218.939 94.004 218.841 95.195 C 215.341 96.206 211.453 99.451 208.283 100.909 C 203.373 103.167 187.272 110.417 183.006 107.767 Z" style="stroke-width: 1;"></path>
  <path fill="#FEE1E3" d="M 195.653 115.617 L 196.196 115.754 C 194.934 117.802 186.352 119.316 184.091 119.827 L 183.407 119.67 L 183.786 119.091 L 183.765 119.48 L 184.022 118.95 C 186.581 117.717 192.821 116.33 195.653 115.617 Z" style="stroke-width: 1;"></path>
  <path fill="#CE2021" d="M 115.675 237.507 C 115.636 245.167 115.62 252.102 115.896 259.754 C 80.497 260.779 45.232 260.896 9.831 260.69 C 6.271 260.669 2.639 261.302 -0.906 261.135 C 5.063 259.202 11.387 258.253 17.484 257.062 L 46.974 251.206 L 87.973 242.565 C 97.069 240.677 106.533 238.548 115.675 237.507 Z" style="stroke-width: 1;"></path>
  <path fill="#EA302E" d="M 87.821 152.906 C 84.596 153.523 80.952 154.259 77.729 154.587 C 78.683 153.349 85.131 151.775 86.824 151.312 L 87.821 152.906 Z" style="stroke-width: 1;"></path>
  <path fill="#FEFEFE" fill-opacity="0.023529412" d="M 121.375 338.828 C 122.634 339.105 123.74 339.188 124.835 340.06 C 123.823 340.395 124.064 340.448 123.08 340.353 C 121.915 340.042 121.154 340.17 119.727 339.718 C 120.43 338.918 120.385 339.113 121.375 338.828 Z" style="stroke-width: 1;"></path>
  <path fill="#FEFEFE" fill-opacity="0.019607844" d="M 142.88 303.887 C 144.505 303.522 146.013 303.273 147.64 303.016 L 146.114 304.095 C 144.56 304.68 143.653 305.054 142.165 305.893 C 142.286 304.738 142.337 304.803 142.88 303.887 Z" style="stroke-width: 1;"></path>
  <path fill="#8397B4" fill-opacity="0.56078434" d="M 147.64 303.016 C 149.538 302.702 150.405 302.685 152.291 302.722 L 152.448 303.192 C 150.283 303.71 148.273 303.707 146.114 304.095 L 147.64 303.016 Z" style="stroke-width: 1;"></path>
</svg></svg></g></g><defs><clipPath id="SvgjsClipPath1290"><rect width="1000" height="1000" x="0" y="0" rx="200" ry="200"></rect></clipPath></defs></svg></g></svg>